<svg width="41" height="50" viewBox="0 0 41 50" fill="none" xmlns="http://www.w3.org/2000/svg">
<path d="M30.1961 3.22062L26.1953 3.99079C25.8298 4.07315 25.4484 4.05121 25.0948 3.92742C24.7411 3.80364 24.4293 3.58292 24.1949 3.29058C23.0247 1.85029 21.5543 0 20.014 0C18.4737 0 17.0135 1.85029 15.8333 3.29058C15.6039 3.57254 15.3022 3.78673 14.9603 3.91008C14.6184 4.03344 14.2493 4.06137 13.8928 3.99079L9.89201 3.22062C9.52834 3.22468 9.17128 3.318 8.85213 3.4924C8.53298 3.6668 8.26154 3.91695 8.06169 4.22082C7.85861 4.51962 7.73146 4.86343 7.69138 5.22248C7.65129 5.58153 7.69949 5.94505 7.83166 6.28129L11.3023 10.7321C11.3965 10.8513 11.5166 10.9475 11.6535 11.0133C11.7904 11.0792 11.9406 11.113 12.0925 11.1122H28.0357C28.1876 11.113 28.3377 11.0792 28.4746 11.0133C28.6115 10.9475 28.7317 10.8513 28.8259 10.7321L32.2965 6.28129C32.4287 5.94505 32.4768 5.58153 32.4367 5.22248C32.3966 4.86343 32.2696 4.51962 32.0665 4.22082C31.8666 3.91695 31.5952 3.6668 31.2761 3.4924C30.9569 3.318 30.5997 3.22468 30.2361 3.22062H30.1961Z" fill="#E8E8E8"/>
<path d="M29.0959 14.913C28.908 14.6903 28.6736 14.5114 28.4093 14.3887C28.1449 14.266 27.857 14.2026 27.5656 14.2029H12.6526C12.3612 14.2026 12.0732 14.266 11.8089 14.3887C11.5446 14.5114 11.3102 14.6903 11.1222 14.913C8.70174 17.8036 0 28.9159 0 38.9979C0 45.6992 5.00101 50.0001 8.38168 50.0001H31.8365C35.1871 50.0001 40.2181 45.6492 40.2181 38.9979C40.2181 28.8959 31.5164 17.8036 29.0959 14.913ZM21.8044 39.3379V41.0383C21.8044 41.3036 21.699 41.5579 21.5114 41.7455C21.3238 41.9331 21.0695 42.0385 20.8042 42.0385H19.454C19.1887 42.0385 18.9342 41.9331 18.7467 41.7455C18.5591 41.5579 18.4538 41.3036 18.4538 41.0383V39.3479C16.1833 38.9278 14.683 37.6176 14.3329 35.7172C14.3167 35.642 14.3172 35.5641 14.3347 35.4891C14.3521 35.4142 14.386 35.344 14.4338 35.2838C14.4816 35.2235 14.5423 35.1746 14.6113 35.1405C14.6804 35.1065 14.7561 35.0883 14.833 35.0871H16.7634C16.8745 35.0833 16.9842 35.114 17.0773 35.1749C17.1704 35.2357 17.2424 35.3238 17.2835 35.4271C17.5936 36.4273 18.7138 37.0275 20.2841 37.0275C21.8544 37.0275 22.9946 36.2573 22.9946 35.167C22.9946 34.2369 22.2644 33.7068 20.4741 33.3067L18.5838 32.8967C15.9333 32.3466 14.583 30.9663 14.583 28.7458C14.583 26.5254 16.0633 24.9251 18.4237 24.395V22.6745C18.4237 22.4093 18.5291 22.1549 18.7166 21.9674C18.9042 21.7798 19.1587 21.6743 19.4239 21.6743H20.7742C21.0394 21.6743 21.2939 21.7798 21.4815 21.9674C21.669 22.1549 21.7744 22.4093 21.7744 22.6745V24.395C22.7005 24.5322 23.5632 24.9469 24.2489 25.5843C24.9345 26.2218 25.4109 27.052 25.6151 27.9656C25.6316 28.0403 25.6311 28.1178 25.6136 28.1923C25.5962 28.2667 25.5622 28.3364 25.5141 28.3959C25.4661 28.4555 25.4053 28.5034 25.3363 28.5363C25.2672 28.5692 25.1915 28.5861 25.115 28.5858H23.2647C23.1582 28.5916 23.0528 28.5624 22.9643 28.5029C22.8759 28.4433 22.8092 28.3566 22.7746 28.2557C22.5675 27.7443 22.2001 27.3139 21.7276 27.0289C21.2551 26.744 20.703 26.6199 20.1541 26.6754C18.6838 26.6754 17.6235 27.3755 17.6235 28.4858C17.6235 29.386 18.3137 29.8861 20.024 30.2662L21.7744 30.6362C24.705 31.2463 25.9653 32.4966 25.9653 34.7771C25.9753 37.2276 24.4149 38.8378 21.8044 39.3379Z" fill="#E8E8E8"/>
</svg>
