<svg width="20" height="15" viewBox="0 0 20 15" fill="none" xmlns="http://www.w3.org/2000/svg">
<path d="M17.7778 0H2.22222C1.63285 0 1.06763 0.2348 0.650879 0.652739C0.234131 1.07068 0 1.63752 0 2.22857V12.6286C0 13.2196 0.234131 13.7865 0.650879 14.2044C1.06763 14.6223 1.63285 14.8571 2.22222 14.8571H17.7778C18.3671 14.8571 18.9324 14.6223 19.3491 14.2044C19.7659 13.7865 20 13.2196 20 12.6286V2.22857C20 1.63752 19.7659 1.07068 19.3491 0.652739C18.9324 0.2348 18.3671 0 17.7778 0ZM17.3993 3.22103L11.6704 8.14543C11.2059 8.54689 10.6132 8.76802 10 8.76869C9.38703 8.76791 8.79466 8.54678 8.33038 8.14543L2.60148 3.22103C2.48972 3.12471 2.42064 2.98785 2.40939 2.8405C2.39814 2.69315 2.44565 2.54735 2.54149 2.43509C2.63753 2.32301 2.77399 2.25372 2.92093 2.24244C3.06786 2.23116 3.21325 2.2788 3.32519 2.37491L9.05334 7.29931C9.31637 7.52754 9.65255 7.65315 10.0004 7.65315C10.3482 7.65315 10.6844 7.52754 10.9474 7.29931L16.6756 2.37491C16.7875 2.2788 16.9329 2.23116 17.0798 2.24244C17.2268 2.25372 17.3632 2.32301 17.4593 2.43509C17.5551 2.54735 17.6026 2.69315 17.5914 2.8405C17.5801 2.98785 17.511 3.12471 17.3993 3.22103Z" fill="#A0A2A3"/>
</svg>
