<svg width="80" height="80" viewBox="0 0 80 80" fill="none" xmlns="http://www.w3.org/2000/svg">
<path d="M66.6741 19.0095H66.236V6.97143C66.236 3.12381 63.1122 0 59.2646 0H33.7598C29.9122 0 26.7884 3.12381 26.7884 6.97143V73.0286C26.7884 76.8762 29.9122 80 33.7598 80H59.2646C63.1122 80 66.236 76.8762 66.236 73.0286V27.581H66.6741V19.0095Z" fill="#213564"/>
<path d="M59.5503 1.80957H56.2169C56.7312 3.08576 56.1217 4.51433 54.8455 5.02862C54.5598 5.1429 54.236 5.20005 53.9312 5.21909H39.3217C37.9503 5.21909 36.8455 4.09528 36.8455 2.7429C36.8455 2.41909 36.9027 2.11433 37.036 1.82862H33.9312C31.055 1.82862 28.7312 4.15243 28.7312 7.02862V72.9905C28.7312 75.8667 31.055 78.1905 33.9312 78.1905H59.5503C62.4265 78.1905 64.7503 75.8667 64.7503 72.9905V7.02862C64.7503 4.15243 62.4265 1.82862 59.5503 1.80957Z" fill="white"/>
<path d="M47.2265 57.0095C39.3027 57.0095 32.8646 50.5904 32.8646 42.6666V42.6476C32.8646 34.7047 39.3027 28.2856 47.2265 28.2856C55.1693 28.2856 61.5884 34.7237 61.5884 42.6476C61.5884 50.5714 55.1693 57.0095 47.2265 57.0095ZM47.2265 28.819C45.055 28.819 42.9027 29.3333 40.9598 30.3237C34.1598 33.7904 31.455 42.0952 34.9217 48.8952C38.3884 55.6952 46.6931 58.3999 53.4931 54.9333C54.1217 54.6095 54.7312 54.2285 55.3217 53.8285C56.0646 53.2952 56.7503 52.6856 57.3788 51.9999C62.5598 46.3999 62.2169 37.6761 56.6169 32.4952C54.0646 30.1333 50.7122 28.819 47.2265 28.819Z" fill="#A0A2A3"/>
<path d="M16.0836 29.8857C17.5693 30.0761 18.636 31.4285 18.4455 32.9142C18.4265 33.0666 18.3884 33.238 18.3503 33.3904L23.1312 37.3523L21.4169 40.8381L14.7503 35.1238C13.3408 34.5714 12.636 32.9904 13.1884 31.5809C13.6455 30.419 14.8265 29.7142 16.0836 29.8857Z" fill="#FFB6B6"/>
<path d="M48.2579 32.3387C51.8934 31.7562 54.3684 28.3369 53.7859 24.7014C53.2034 21.0659 49.7841 18.5909 46.1486 19.1734C42.513 19.7558 40.0381 23.1752 40.6206 26.8107C41.203 30.4462 44.6224 32.9212 48.2579 32.3387Z" fill="#FFB6B6"/>
<path d="M41.9312 18.1524C42.5788 17.2191 43.5503 16.5715 44.655 16.3429C45.7408 16.1144 46.8836 16.3239 47.836 16.9144C48.8646 16.4953 49.9693 16.2286 51.055 16.362C52.1408 16.4953 53.2074 17.1048 53.7027 18.1144C53.7979 18.381 53.9312 18.6286 54.0836 18.8572C54.5217 19.4477 55.3407 19.5239 56.0645 19.562L54.9598 20.2096L56.0645 20.7239L54.5788 21.2953C55.7408 22.3048 56.0265 24.1334 55.5884 25.6382C55.1693 27.0858 54.2169 28.2858 53.1503 29.3334C52.9408 28.5524 53.1693 27.7144 53.3217 26.9144C53.4741 26.0763 53.5122 25.0858 52.9217 24.4763C52.5217 24.0763 51.9312 23.9429 51.3788 23.8477C48.5979 23.3524 45.7789 23.0286 42.9408 22.8382C42.5598 22.781 42.1788 22.8191 41.8169 22.9524C41.1312 23.2572 40.8455 24.0953 40.655 24.8382C40.5598 23.5239 40.636 22.2096 40.8836 20.9334C41.0741 19.962 41.3598 18.9715 41.9312 18.1524Z" fill="#131E29"/>
<path d="M50.6169 63.7713H42.7312C42.1598 63.7522 41.7217 63.257 41.7407 62.6855C41.7598 62.1522 42.1979 61.7141 42.7312 61.6951H50.6169C51.1884 61.7141 51.6265 62.2094 51.6074 62.7808C51.5693 63.3141 51.1503 63.7522 50.6169 63.7713Z" fill="#A0A2A3"/>
<path d="M53.4931 54.9333C54.1217 54.6095 54.7312 54.2285 55.3217 53.8285C56.0646 53.2952 56.7503 52.6857 57.3788 52C59.0169 50.2285 60.1026 48.1523 60.636 45.9809C60.4836 44.9333 60.1598 43.5047 59.8741 42.9142C58.8455 40.2095 52.1788 37.9809 51.2645 37.6952L51.036 35.1619L41.7598 34.1714L40.5788 37.4095L37.2455 38.6476C36.7884 38.819 36.4265 39.1809 36.2741 39.6381L33.2836 40.4952L30.3312 41.3523L20.1026 34.1523L19.6265 34.4571L16.3884 36.5714L15.9122 36.8952L29.1503 48.8381L34.0645 47.6952L37.7598 46.819L38.0836 48.0952L37.3217 52.2476C41.436 56.4952 47.9693 57.7523 53.4931 54.9333Z" fill="#B2173B"/>
</svg>
