<svg xmlns="http://www.w3.org/2000/svg" viewBox="0 0 40.85 31.49"><defs><style>.cls-1{fill:#b21f24;}.cls-2{fill:#fff;}</style></defs><title>Asset 10</title><g id="Layer_2" data-name="Layer 2"><g id="Layer_1-2" data-name="Layer 1"><rect class="cls-1" width="40.85" height="31.49" rx="4.68"/><path class="cls-2" d="M34,18.36q-4.14,4.09-5.12,4.1c-.43,0-.64-.5-.64-1.49a38.25,38.25,0,0,1,.52-5q.51-3.48,2.38-13.27l-.1,0a6,6,0,0,0-2.21.73A4.4,4.4,0,0,0,27,4.73l0,0q-3.37,6.9-5.75,11.46c-.36.69-.63,1.21-.79,1.57h-.22q.09-1.38.33-6.21T21.35,3a.51.51,0,0,1-.16-.09,4.51,4.51,0,0,0-2.26.64,4.59,4.59,0,0,0-1.65,1.68c-.63,1.34-1.87,4-3.73,7.9s-3.15,6.69-3.9,8.3A5.52,5.52,0,0,1,7,23.75c-.63.29-1.43.62-2.39,1s-1.23.78-1.23,1.33c0,1.26.22,1.89.65,1.89A4.7,4.7,0,0,0,6.49,27,13.09,13.09,0,0,0,9,24.85a12.41,12.41,0,0,0,1.67-2.27L17.17,8.86h.19l-.38,15c0,.4.23.67.72.81q.66-.36,9.06-17a.2.2,0,0,1,.08-.12.18.18,0,0,1,.13,0c.11,0,.17.06.17.18a9.78,9.78,0,0,1-.22,1.18c-.14.67-.34,1.72-.59,3.15s-.58,3.33-1,5.71A28.17,28.17,0,0,0,25,22.25c0,1.92.52,2.88,1.54,2.88q2.18,0,7.49-5.22l2.15-2.15V16.18Z"/></g></g></svg>