<svg width="20" height="15" viewBox="0 0 20 15" fill="none" xmlns="http://www.w3.org/2000/svg">
<path d="M2.4464 5.18291C2.45493 5.03545 2.52085 4.89695 2.6304 4.79631C2.73994 4.69568 2.88465 4.6407 3.03429 4.64286H17.8775C17.9275 4.64286 17.9753 4.62329 18.0106 4.58846C18.0459 4.55363 18.0657 4.5064 18.0657 4.45714C18.0657 3.86609 17.8278 3.29924 17.4043 2.88131C16.9808 2.46337 16.4064 2.22857 15.8075 2.22857H7.17736C7.05347 2.22859 6.93149 2.19843 6.82224 2.14076C6.71299 2.08309 6.61985 1.99971 6.55109 1.898L5.7163 0.661884C5.57879 0.458223 5.39243 0.291241 5.17378 0.175771C4.95514 0.0603015 4.71098 -7.73199e-05 4.46299 7.43096e-08H2.25822C1.6593 7.43096e-08 1.08491 0.234796 0.661412 0.652734C0.237915 1.07067 0 1.63752 0 2.22857V12.6286C0 13.2196 0.237915 13.7865 0.661412 14.2044C1.08491 14.6223 1.6593 14.8571 2.25822 14.8571H16.2689C16.7795 14.8571 17.275 14.6864 17.6746 14.3727C18.0742 14.059 18.3543 13.621 18.4692 13.13L19.9807 6.66714C20.0062 6.55827 20.0064 6.44513 19.9815 6.33614C19.9565 6.22716 19.9069 6.12514 19.8365 6.03768C19.766 5.95022 19.6764 5.87957 19.5745 5.831C19.4725 5.78243 19.3608 5.75718 19.2475 5.75714H3.01096C2.93534 5.75718 2.86048 5.74222 2.79083 5.71316C2.72118 5.6841 2.65816 5.64152 2.6055 5.58796C2.55285 5.53441 2.51164 5.47096 2.4843 5.40137C2.45697 5.33179 2.44408 5.2575 2.4464 5.18291Z" fill="#A0A2A3"/>
</svg>
