<svg width="153" height="50" viewBox="0 0 153 50" fill="none" xmlns="http://www.w3.org/2000/svg">
<path d="M42.8952 0H7.10484C3.18095 0 0 3.18095 0 7.10484V42.8952C0 46.8191 3.18095 50 7.10484 50H42.8952C46.8191 50 50 46.8191 50 42.8952V7.10484C50 3.18095 46.8191 0 42.8952 0Z" fill="#B2173B"/>
<path d="M46.914 29.337C42.9706 33.2111 40.5309 35.1481 39.595 35.1481C38.9834 35.1481 38.6775 34.4457 38.6775 33.0408C38.6775 31.636 38.9242 29.283 39.4177 25.9818C39.9131 22.6848 41.0519 16.4088 42.834 7.15385L42.678 7.07739C41.9378 7.10186 40.8867 7.44951 39.5247 8.12033C38.1627 8.79116 37.3073 9.41305 36.9586 9.98601L36.9984 9.94625C33.785 16.471 31.0446 21.8916 28.7772 26.2082C28.2573 27.1828 27.8801 27.925 27.6456 28.4347H27.3397C27.4192 27.1318 27.5732 24.1937 27.8016 19.6202C28.0299 15.0468 28.3715 11.0279 28.8261 7.56369C28.7413 7.531 28.6619 7.48563 28.5906 7.42912C27.4542 7.44955 26.3423 7.76327 25.3627 8.33985C24.3832 8.91644 23.5692 9.73633 22.9997 10.72C22.0965 12.6326 20.3195 16.3741 17.6688 21.9447C15.0181 27.5152 13.1576 31.4392 12.0871 33.7167C11.3082 35.0971 10.0328 36.186 8.26094 36.9832C7.36174 37.391 6.22297 37.8589 4.84462 38.387C3.67322 38.855 3.08905 39.4881 3.08905 40.2802C3.08905 42.0643 3.3949 42.9564 4.00659 42.9564C5.02609 42.9564 6.20972 42.5068 7.55749 41.6076C8.86624 40.7419 10.0603 39.7143 11.1114 38.5491C12.0214 37.5663 12.8204 36.4863 13.494 35.3286L22.8438 15.8522H23.116L22.5624 37.075C22.5624 37.6469 22.9049 38.0292 23.5961 38.2249C24.2323 37.8865 28.5529 29.8325 36.558 14.063C36.5747 13.9951 36.6142 13.935 36.6699 13.8927C36.7255 13.8504 36.794 13.8285 36.8638 13.8305C37.0198 13.8305 37.0993 13.9162 37.0993 14.0844C37.0311 14.6497 36.9289 15.2104 36.7935 15.7635C36.5916 16.7116 36.3072 18.2103 35.9432 20.2319C35.5793 22.2536 35.1174 24.9634 34.5577 28.3338C34.1876 30.4881 33.9923 32.6687 33.9736 34.8545C33.9736 37.5765 34.7086 38.9365 36.1787 38.9345C38.2483 38.9345 41.8165 36.4684 46.8834 31.536L49.9602 28.4776V26.2449L46.914 29.337Z" fill="white"/>
<path d="M67.4242 13.3778L67.2315 6.28518L64.5339 13.7968H62.7875L60.1542 6.30353L60.0104 13.3778L61.3348 13.7387V14.4513H57.4291V13.7387L58.3986 13.3839L58.9002 5.22695L57.897 4.95169V4.21765H62.3226L64.3596 10.3101L66.5005 4.21765H71.0393V4.93028L69.975 5.22083L70.2166 13.3778L71.3329 13.7387V14.4513H66.0509V13.7387L67.4242 13.3778Z" fill="white"/>
<path d="M75.3885 6.86932C77.5539 6.86932 78.9914 7.98261 78.9914 10.7444C78.9914 13.5062 77.5539 14.6379 75.3885 14.6379C73.2231 14.6379 71.804 13.4909 71.804 10.7444C71.804 7.9979 73.2231 6.86932 75.3885 6.86932ZM75.3885 13.4573C76.1653 13.4573 76.4375 12.344 76.4375 10.7934C76.4375 9.11425 76.1806 8.04072 75.3885 8.04072C74.5963 8.04072 74.3394 9.10813 74.3394 10.7934C74.3394 12.344 74.6147 13.4573 75.3885 13.4573Z" fill="white"/>
<path d="M84.1938 13.7662L84.7902 13.4909V10.2918C84.7902 9.01638 84.3712 8.6463 83.4965 8.6463C83.308 8.64771 83.1199 8.66304 82.9337 8.69218V13.4909L83.5301 13.7662V14.4452H79.6856V13.7662L80.5083 13.4909V8.74111L79.6856 8.37104V7.72264L82.9001 6.86932V8.09272L84.8881 6.86932C86.4387 6.86932 87.2125 7.80522 87.2125 9.31611V13.4909L87.9251 13.7662V14.4452H84.1938V13.7662Z" fill="white"/>
<path d="M90.9286 10.7597C90.9928 12.2308 91.4791 12.8456 92.9808 12.8456C93.6022 12.8351 94.2118 12.6745 94.7578 12.3776L95.1126 13.0872L92.7698 14.5736C92.5694 14.6207 92.3639 14.6423 92.1581 14.6379C89.8826 14.6379 88.6225 13.3472 88.6225 10.6313C88.6225 8.40162 89.8459 6.86932 92.256 6.86932C93.9534 6.86932 95.1004 7.8358 95.1004 9.66171C95.1031 10.0479 95.059 10.4331 94.9688 10.8086L90.9286 10.7597ZM90.9439 9.80852L92.779 9.71065C92.8296 9.49394 92.8573 9.27251 92.8616 9.05002C92.8616 8.33739 92.5557 7.93367 92.0541 7.93367C91.3782 7.92756 91.0265 8.69218 90.9439 9.80852Z" fill="white"/>
<path d="M100.719 11.0994L101.606 8.1296L100.554 7.70753V7.06219H103.863V7.70753L103.138 8.1296L101.398 12.8213C100.606 14.9622 99.3944 16.8921 97.9232 17.8311C97.2443 17.8311 96.5163 17.4274 96.5163 16.6077V16.464C97.8743 16.1061 98.9417 15.6565 99.5748 14.4607H98.6573L96.4124 8.1449L95.66 7.70753V7.06219H100.006V7.70753L98.9081 8.1296L99.8776 11.0994L100.312 12.699L100.719 11.0994Z" fill="white"/>
<path d="M104.175 13.7662L105.031 13.4909V5.13823L104.19 4.76815V4.04024L107.453 3.3949V13.4879L108.31 13.7631V14.4421H104.175V13.7662Z" fill="white"/>
<path d="M111.316 10.7597C111.381 12.2308 111.864 12.8456 113.365 12.8456C113.987 12.8351 114.596 12.6745 115.142 12.3776L115.5 13.0872L113.157 14.5736C112.957 14.6205 112.752 14.6421 112.546 14.6379C110.267 14.6379 109.007 13.3472 109.007 10.6313C109.007 8.40162 110.231 6.86932 112.644 6.86932C114.338 6.86932 115.485 7.8358 115.485 9.66171C115.487 10.0477 115.444 10.4327 115.357 10.8086L111.316 10.7597ZM111.332 9.80852L113.167 9.71065C113.216 9.49385 113.243 9.27241 113.246 9.05002C113.246 8.33739 112.94 7.93367 112.439 7.93367C111.751 7.92756 111.411 8.69218 111.332 9.80852Z" fill="white"/>
<path d="M120.7 13.7662L121.311 13.4909V10.2918C121.311 9.01638 120.889 8.6463 120.018 8.6463C119.828 8.6477 119.639 8.66304 119.452 8.69218V13.4909L120.064 13.7662V14.4452H116.195V13.7662L117.017 13.4909V8.74111L116.195 8.37104V7.72264L119.409 6.86932V8.09272L121.394 6.86932C122.945 6.86932 123.722 7.80522 123.722 9.31611V13.4909L124.431 13.7662V14.4452H120.7V13.7662Z" fill="white"/>
<path d="M129.731 13.4573L127.896 14.6379C126.086 14.4758 125.116 13.1361 125.116 10.9218C125.116 8.70747 126.199 6.91521 129.028 6.91521C129.262 6.91386 129.495 6.94159 129.722 6.99778V5.13823L128.881 4.76815V4.04024L132.145 3.3949V13.2157L133.001 13.4909V14.1546L129.731 14.6379V13.4573ZM128.955 8.12942C128.23 8.12942 127.695 8.69218 127.695 10.5762C127.695 12.3868 128.438 12.8884 129.358 12.8884C129.483 12.884 129.608 12.8728 129.731 12.8548V8.67689C129.685 8.50988 129.583 8.36406 129.441 8.26424C129.299 8.16442 129.127 8.11678 128.955 8.12942Z" fill="white"/>
<path d="M135.787 10.7597C135.855 12.2308 136.338 12.8456 137.84 12.8456C138.461 12.8351 139.071 12.6745 139.616 12.3776L139.971 13.0872L137.632 14.5736C137.431 14.6205 137.226 14.6421 137.02 14.6379C134.741 14.6379 133.481 13.3472 133.481 10.6313C133.481 8.40162 134.705 6.86932 137.118 6.86932C138.812 6.86932 139.959 7.8358 139.959 9.66171C139.961 10.0477 139.918 10.4327 139.831 10.8086L135.787 10.7597ZM135.806 9.80852L137.641 9.71065C137.689 9.49359 137.715 9.27231 137.72 9.05002C137.72 8.33739 137.43 7.93367 136.913 7.93367C136.225 7.92756 135.885 8.69218 135.806 9.80852Z" fill="white"/>
<path d="M143.883 8.74111V13.4909L144.996 13.7662V14.4452H140.669V13.7662L141.458 13.4909V8.74111L140.669 8.37104V7.72264L143.785 6.86932L143.865 8.09272L145.223 6.86932C146.37 6.94884 146.807 7.65841 146.807 8.37104C146.832 8.72305 146.717 9.07071 146.489 9.33945C146.26 9.60818 145.935 9.77658 145.583 9.80852C145.397 9.51585 145.147 9.26828 144.853 9.0837C144.559 8.89911 144.228 8.7821 143.883 8.74111Z" fill="white"/>
<path d="M147.29 13.9743C147.37 13.3136 147.403 12.6194 147.419 11.9251H148.266C148.459 13.121 149.107 13.54 149.994 13.54C150.575 13.54 150.884 13.28 150.884 12.8304C150.884 12.4573 150.737 12.2187 150.092 11.9557L149.073 11.552C147.749 11.0534 147.312 10.2919 147.312 9.20917C147.307 8.88178 147.379 8.55786 147.522 8.26353C147.666 7.96921 147.877 7.71272 148.137 7.51477C148.742 7.06587 149.483 6.83808 150.235 6.86943C151.043 6.86943 151.899 6.99789 152.45 7.35267C152.45 8.03165 152.514 8.72593 152.578 9.2581L151.624 9.43549C151.401 8.38644 150.835 7.96742 150.095 7.96742C149.514 7.96742 149.177 8.23963 149.177 8.69228C149.177 9.08071 149.37 9.32233 150 9.56701L152.101 10.3897C152.329 10.6214 152.506 10.8973 152.623 11.2003C152.74 11.5033 152.793 11.827 152.78 12.1514C152.8 12.5042 152.735 12.8567 152.592 13.1795C152.448 13.5024 152.23 13.7863 151.954 14.0079C151.315 14.4608 150.541 14.683 149.758 14.638C148.92 14.638 147.92 14.4759 147.29 13.9743Z" fill="white"/>
<path d="M57.6033 28.8506V28.138L58.7166 27.7832V19.6905L57.6033 19.3357V18.6323H62.9832V19.3357L61.5763 19.6905V27.6425C62.4719 27.6519 63.3659 27.5658 64.2433 27.3856L64.7693 25.7463H65.6227V28.8506H57.6033Z" fill="white"/>
<path d="M69.9688 21.2717C72.1342 21.2717 73.5717 22.3881 73.5717 25.1499C73.5717 27.9117 72.1403 29.0311 69.9688 29.0311C67.7973 29.0311 66.3904 27.8964 66.3904 25.1499C66.3904 22.4034 67.8279 21.2717 69.9688 21.2717ZM69.9688 27.8628C70.7457 27.8628 71.0209 26.7495 71.0209 25.1988C71.0209 23.5197 70.7609 22.4462 69.9688 22.4462C69.1767 22.4462 68.9197 23.5136 68.9197 25.1988C68.9259 26.7495 69.2011 27.8628 69.9688 27.8628Z" fill="white"/>
<path d="M79.8783 29.0311C79.2176 29.0311 78.7803 28.7895 78.6182 28.19L76.5353 29.0311C75.0979 28.8201 74.3394 28.0126 74.3394 26.8902C74.3394 25.7677 75.0336 25.257 76.8412 24.7492L78.5325 24.3088V23.7614C78.5325 22.7429 78.0462 22.4676 77.1899 22.4676C77.0993 22.46 77.0082 22.46 76.9177 22.4676V23.8898C76.5702 24.0338 76.1955 24.1006 75.8197 24.0856C75.107 24.0856 74.5259 23.7124 74.5259 23.168C74.5259 22.6236 74.8654 22.2291 75.8502 21.9079L77.8535 21.2595H78.3062C80.1413 21.2595 80.857 22.2138 80.857 23.5717V26.9361C80.857 27.4224 81.068 27.615 81.4687 27.615H81.6797L81.7929 28.1166L80.2422 28.9883C80.1236 29.0201 80.001 29.0345 79.8783 29.0311ZM76.8198 26.6088C76.8198 27.2847 77.3183 27.6426 78.0432 27.6426C78.2124 27.6429 78.381 27.6213 78.5448 27.5783V25.1835C77.3917 25.5689 76.8106 25.8289 76.8106 26.621L76.8198 26.6088Z" fill="white"/>
<path d="M86.8578 28.1717L87.4542 27.8964V24.6972C87.4542 23.4218 87.0352 23.0487 86.1635 23.0487C85.974 23.0511 85.7849 23.0675 85.5977 23.0976V27.8964L86.1941 28.1717V28.8506H82.3496V28.1717L83.1754 27.8964V23.1466L82.3496 22.7765V22.1281L85.5671 21.2717V22.4951L87.5551 21.2717C89.1058 21.2717 89.8826 22.2107 89.8826 23.7185V27.8964L90.5922 28.1717V28.8506H86.8609L86.8578 28.1717Z" fill="white"/>
<path d="M67.73 42.4883V43.2162H62.4663V42.4883L63.806 42.051L63.3197 40.485H60.3652L59.8758 42.0632L61.1359 42.5006V43.2285H57.2302V42.4883L58.2151 42.051L61.2215 33.1202L63.7417 32.8602L66.6962 42.051L67.73 42.4883ZM60.7352 39.2891H62.9496L61.8516 35.6863L60.7352 39.2891Z" fill="white"/>
<path d="M71.8682 43.4212C69.556 43.4212 68.2959 42.1122 68.2959 39.3014C68.2959 36.8791 69.556 35.6526 71.8988 35.6526C73.7553 35.6526 74.7095 36.4264 74.7095 37.5397C74.7095 38.2829 74.159 38.5582 73.3363 38.5582C73.0347 38.5629 72.7361 38.4969 72.4646 38.3655C72.4646 37.1421 72.2536 36.6864 71.7214 36.6864C70.8497 36.6864 70.6387 37.7844 70.6387 39.0445C70.6387 40.8796 71.4308 41.6442 72.6756 41.6442C73.297 41.6337 73.9066 41.4731 74.4526 41.1763L74.8074 41.8858L72.4646 43.357C72.2691 43.4023 72.0689 43.4239 71.8682 43.4212Z" fill="white"/>
<path d="M81.0253 43.4213C80.3647 43.4213 79.9273 43.1797 79.7652 42.5802L77.6824 43.4213C76.2449 43.2102 75.4864 42.4028 75.4864 41.2803C75.4864 40.1579 76.1807 39.6471 77.9882 39.1394L79.6857 38.6684V38.1209C79.6857 37.1025 79.1994 36.8272 78.343 36.8272C78.2519 36.8242 78.1607 36.8303 78.0708 36.8456V38.2647C77.7233 38.4087 77.3487 38.4755 76.9728 38.4604C76.2602 38.4604 75.6791 38.0873 75.6791 37.5429C75.6791 36.9985 76.0186 36.6039 77.0034 36.2828L79.0067 35.6375H79.4502C81.2853 35.6375 82.0009 36.5886 82.0009 37.9466V41.3109C82.0009 41.7972 82.212 41.9899 82.6126 41.9899H82.8237L82.9368 42.4915L81.3862 43.3632C81.2694 43.4001 81.1478 43.4196 81.0253 43.4213ZM77.9668 40.999C77.9668 41.6779 78.4653 42.0327 79.1902 42.0327C79.3595 42.033 79.5281 42.0114 79.6918 41.9685V39.5615C78.5326 39.9468 77.9576 40.2068 77.9576 40.999H77.9668Z" fill="white"/>
<path d="M88.3196 42.2407L86.4845 43.4212C84.6769 43.2591 83.7074 41.9195 83.7074 39.7052C83.7074 37.4909 84.7901 35.6986 87.6161 35.6986C87.8501 35.6969 88.0834 35.7246 88.3104 35.7812V33.9247L87.4724 33.5546V32.8236L90.7358 32.1783V41.9991L91.5922 42.2743V42.938L88.3196 43.4212V42.2407ZM87.5458 36.9097C86.8179 36.9097 86.2857 37.4756 86.2857 39.3565C86.2857 41.1671 87.0289 41.6687 87.9495 41.6687C88.0734 41.6644 88.1969 41.6532 88.3196 41.6351V37.4603C88.2732 37.2919 88.1698 37.1449 88.0269 37.0445C87.8841 36.944 87.7107 36.8964 87.5366 36.9097H87.5458Z" fill="white"/>
<path d="M94.3693 39.543C94.4336 41.0142 94.9199 41.6289 96.4216 41.6289C97.0429 41.6184 97.6526 41.4578 98.1985 41.161L98.5533 41.8705L96.2105 43.357C96.0101 43.404 95.8046 43.4256 95.5988 43.4212C93.3233 43.4212 92.0632 42.1274 92.0632 39.4146C92.0632 37.1849 93.2866 35.6526 95.6967 35.6526C97.3942 35.6526 98.5411 36.6191 98.5411 38.445C98.5439 38.8313 98.4997 39.2164 98.4096 39.592L94.3693 39.543ZM94.3846 38.5918L96.2197 38.494C96.2701 38.2772 96.2978 38.0558 96.3023 37.8333C96.3023 37.1207 96.0117 36.717 95.4918 36.717C94.8067 36.717 94.4672 37.4755 94.3846 38.5918Z" fill="white"/>
<path d="M107.989 42.5495L108.585 42.2743V39.0751C108.585 37.7997 108.166 37.4296 107.291 37.4296C107.086 37.4241 106.88 37.4457 106.68 37.4939C106.712 37.7074 106.729 37.9231 106.729 38.1392V42.2743L107.31 42.5495V43.2285H103.707V42.5495L104.303 42.2743V39.0751C104.303 37.7997 103.9 37.4296 103.028 37.4296C102.833 37.4309 102.639 37.4462 102.447 37.4755V42.2743L103.058 42.5495V43.2285H99.2476V42.5495L100.024 42.2743V37.5244L99.2476 37.1544V36.506L102.413 35.6526V36.876L104.401 35.6526C105.469 35.6526 106.178 36.1359 106.518 36.9097L108.683 35.6526C110.234 35.6526 111.007 36.5885 111.007 38.0994V42.2743L111.72 42.5495V43.2285H107.989V42.5495Z" fill="white"/>
<path d="M117.115 39.8825L118.002 36.9096L116.938 36.4906V35.8453H120.247V36.4906L119.516 36.9096L117.788 41.5952C116.996 43.7362 115.785 45.666 114.314 46.6019C113.635 46.6019 112.907 46.1982 112.907 45.3786V45.2409C114.265 44.8831 115.332 44.4304 115.965 43.2376H115.048L112.803 36.9188L112.011 36.4998V35.8545H116.357V36.4998L115.259 36.9188L116.228 39.8916L116.663 41.4912L117.115 39.8825Z" fill="white"/>
</svg>
