<svg width="80" height="80" viewBox="0 0 80 80" fill="none" xmlns="http://www.w3.org/2000/svg">
<path d="M54.6397 55.1328C54.6397 55.1328 61.1258 55.4027 61.1258 57.0256C61.1258 58.6486 53.8301 57.0256 53.8301 57.0256L54.6397 55.1328Z" fill="#FFB6B6"/>
<path d="M44.9114 79.9999L32.7525 79.1884L32.2109 72.7042L29.5123 78.3788L17.6194 76.7597C17.8893 66.4898 22.2128 56.4917 22.4826 55.1328C22.7525 53.7739 23.3994 48.1988 23.3994 48.1988C24.5802 45.6935 30.7678 45.46 35.6195 45.6859C37.6291 45.7777 39.4128 45.9519 40.5133 46.0687C41.2406 46.151 41.6616 46.2103 41.6616 46.2103C43.5985 48.2065 44.8483 50.928 45.6157 53.9692C48.3909 64.9319 44.9114 79.9999 44.9114 79.9999Z" fill="#A0A2A3"/>
<path d="M31.4013 17.3069C35.1326 17.3069 38.1573 14.2822 38.1573 10.5509C38.1573 6.81969 35.1326 3.79492 31.4013 3.79492C27.6701 3.79492 24.6453 6.81969 24.6453 10.5509C24.6453 14.2822 27.6701 17.3069 31.4013 17.3069Z" fill="#FFB6B6"/>
<path d="M26.8061 12.1738C26.8061 12.1738 24.919 20.5509 21.9429 22.9796C18.9668 25.4083 33.5621 22.9796 33.5621 22.9796C33.5621 22.9796 30.32 17.5748 32.7525 15.1442C35.1851 12.7135 26.8061 12.1738 26.8061 12.1738Z" fill="#FFB6B6"/>
<path d="M40.5879 46.7615L36.1056 47.2591L23.5639 48.6543L23.3994 48.2046C22.4884 45.7165 18.1036 33.638 17.6194 30.0074C17.0797 25.9538 22.7544 21.0906 22.7544 21.0906C22.7544 21.0906 28.1573 20.0093 29.7802 20.0093C31.4032 20.0093 37.8855 22.4418 37.8855 22.4418L40.3047 44.1969L40.5133 46.0802L40.5879 46.7615Z" fill="#B2173B"/>
<path d="M45.6234 53.9845L36.5343 48.6582L36.1056 47.2629C35.9698 46.8247 35.8052 46.2964 35.6195 45.6955C34.5707 42.329 32.8118 36.773 31.409 32.7136C29.2463 26.4992 39.786 43.7931 39.786 43.7931L40.3123 44.2007L40.521 46.084C41.2482 46.1663 41.6693 46.2256 41.6693 46.2256C43.6061 48.218 44.8559 50.9395 45.6234 53.9845Z" fill="#131E29"/>
<path d="M33.5621 22.9797C33.5621 22.9797 30.8597 26.4936 33.0224 32.7079C35.1851 38.9223 38.1573 48.6525 38.1573 48.6525L53.8301 57.8391L55.9909 55.1329L41.3994 43.7836C41.3994 43.7836 40.8597 23.2457 38.1573 22.4361C35.4549 21.6266 33.5621 22.9797 33.5621 22.9797Z" fill="#B2173B"/>
<path d="M20.186 46.6277C20.186 46.6277 23.9621 54.4631 25.5908 53.6536C27.2195 52.844 21.5372 44.7349 21.5372 44.7349L20.186 46.6277Z" fill="#FFB6B6"/>
<path d="M19.7802 25.1443L5.45865 37.0333C5.45865 37.0333 0.0538437 40.8171 10.052 43.5195C20.0501 46.2219 20.8616 47.8429 20.8616 47.8429C20.8616 47.8429 21.9429 44.331 23.2941 44.8707L11.6749 39.196L21.1314 33.5213L19.7802 25.1443Z" fill="#B2173B"/>
<path d="M14.0252 16.0897C14.7773 15.7069 16.4367 14.9663 17.8529 14.061C17.7534 11.1155 18.1151 8.44185 19.1773 7.02558C19.7726 5.67246 21.0242 4.31935 22.0041 3.2514C24.408 0.640869 29.7286 -0.821337 30.6721 0.487758C37.8109 0.627471 38.5611 6.2294 38.5611 6.2294C38.5248 8.56817 36.0922 8.64281 33.9678 8.5586C34.1592 10.1548 33.6501 11.8122 32.1783 12.551C29.3554 13.9538 28.5113 15.7835 29.92 17.0467C31.3286 18.3098 33.8606 21.6936 30.4826 22.5376C27.1046 23.3816 26.6817 25.085 27.6673 25.7797C28.653 26.4744 25.4147 24.5108 25.4147 24.5108C25.4147 24.5108 24.852 27.8888 21.895 27.0448C21.5847 26.9348 21.311 26.7406 21.1046 26.484C20.3065 27.3625 19.5946 27.8812 19.0568 27.8831C15.9831 27.9003 16.3505 24.4936 16.3505 24.4936C16.3505 24.4936 12.7027 25.5194 13.8414 25.1079C14.9802 24.6965 15.028 22.9548 12.0022 21.2304C8.97635 19.506 12.3276 16.9376 14.0252 16.0897Z" fill="#131E29"/>
<path d="M51.365 26.7193H51.3172L51.4358 27.1729C51.5486 27.8073 51.7131 28.4314 51.9277 29.0389L55.4339 42.371C55.5463 42.7961 55.7801 43.1793 56.1067 43.4736C56.4334 43.768 56.8387 43.9608 57.2732 44.0284L64.4254 45.1346C64.8879 45.2067 65.3614 45.1333 65.7804 44.9245C66.1994 44.7157 66.5432 44.3818 66.7641 43.9691L73.5603 31.2743C73.7701 30.9219 73.9617 30.5591 74.1345 30.1872L74.3642 29.7566H74.3278C75.0502 28.052 75.3689 26.2035 75.2592 24.3554C75.1495 22.5072 74.6143 20.7094 73.6952 19.1023C72.7762 17.4951 71.4983 16.122 69.9612 15.0901C68.424 14.0582 66.6693 13.3954 64.8338 13.1534C62.9983 12.9114 61.1317 13.0968 59.3796 13.6951C57.6276 14.2934 56.0375 15.2884 54.7333 16.6025C53.4292 17.9165 52.4463 19.5142 51.8614 21.2707C51.2764 23.0273 51.1053 24.8952 51.3612 26.7288L51.365 26.7193Z" fill="#213564"/>
<path d="M64.6148 50.5224L55.0358 49.0411C54.968 49.026 54.9084 48.9856 54.8692 48.9281C54.83 48.8707 54.8141 48.8005 54.8249 48.7317C54.8356 48.663 54.8721 48.601 54.9269 48.5582C54.9817 48.5154 55.0508 48.4951 55.1201 48.5014L64.6895 49.9827C64.7566 49.9982 64.8153 50.0384 64.8541 50.0953C64.8929 50.1522 64.9088 50.2216 64.8986 50.2897C64.8885 50.3578 64.8531 50.4196 64.7994 50.4627C64.7457 50.5059 64.6778 50.5272 64.6091 50.5224H64.6148Z" fill="#213564"/>
<path d="M64.8617 48.8706L55.2827 47.3892C55.2156 47.3738 55.1569 47.3336 55.1181 47.2767C55.0793 47.2198 55.0634 47.1503 55.0736 47.0822C55.0837 47.0141 55.1191 46.9524 55.1728 46.9092C55.2265 46.8661 55.2944 46.8448 55.3631 46.8495L64.9421 48.3309C65.0092 48.3463 65.068 48.3865 65.1068 48.4434C65.1455 48.5003 65.1614 48.5698 65.1513 48.6379C65.1411 48.706 65.1057 48.7677 65.052 48.8109C64.9983 48.854 64.9304 48.8753 64.8617 48.8706Z" fill="#213564"/>
<path d="M65.1105 47.219L55.5315 45.7376C55.4637 45.7225 55.4041 45.6821 55.3649 45.6247C55.3257 45.5672 55.3098 45.497 55.3206 45.4283C55.3313 45.3596 55.3678 45.2975 55.4226 45.2547C55.4774 45.2119 55.5465 45.1916 55.6158 45.1979L65.1947 46.6792C65.2626 46.6944 65.3222 46.7347 65.3614 46.7922C65.4006 46.8497 65.4164 46.9199 65.4057 46.9886C65.395 47.0573 65.3585 47.1194 65.3037 47.1622C65.2489 47.2049 65.1798 47.2253 65.1105 47.219Z" fill="#213564"/>
<path d="M59.5277 51.7052C61.4282 52 63.1335 51.1789 63.3344 49.8736L56.4445 48.8076C56.2512 50.1148 57.6272 51.4124 59.5277 51.7052Z" fill="#213564"/>
<path d="M62.4694 42.5509C62.4354 42.551 62.4018 42.5451 62.3698 42.5337L62.1134 42.4399C62.0421 42.4134 61.9843 42.3597 61.9526 42.2906C61.9379 42.2558 61.9304 42.2184 61.9304 42.1806C61.9304 42.1428 61.9379 42.1054 61.9526 42.0705L66.5019 29.6514C66.5215 29.5958 66.5578 29.5477 66.6057 29.5134C66.6536 29.4792 66.711 29.4605 66.7699 29.46C66.804 29.4597 66.8378 29.4662 66.8694 29.4791L67.1258 29.5729C67.1614 29.5855 67.1941 29.605 67.222 29.6304C67.2499 29.6558 67.2724 29.6866 67.2883 29.7208C67.3042 29.755 67.3131 29.7921 67.3144 29.8298C67.3158 29.8675 67.3096 29.9051 67.2962 29.9404L62.7488 42.3595C62.728 42.4166 62.6899 42.4658 62.6398 42.5001C62.5897 42.5344 62.5301 42.5522 62.4694 42.5509Z" fill="white"/>
<path d="M59.6426 42.1186C59.5685 42.1191 59.4972 42.0909 59.4436 42.0398C59.3901 41.9888 59.3585 41.9189 59.3555 41.8449L58.7813 28.6391C58.7782 28.5628 58.8054 28.4883 58.8571 28.432C58.9087 28.3757 58.9806 28.3421 59.0569 28.3386L59.3421 28.3271C59.4128 28.3279 59.4809 28.3545 59.5335 28.4018C59.5883 28.4511 59.6219 28.5197 59.6272 28.5932L60.2014 41.799C60.2033 41.8366 60.1976 41.8743 60.1848 41.9098C60.172 41.9453 60.1523 41.9779 60.1268 42.0057C60.0766 42.059 60.0084 42.0917 59.9354 42.0975L59.6426 42.1186Z" fill="white"/>
<path d="M67.9507 27.8084C67.8908 27.8093 67.8321 27.7913 67.7829 27.757C67.7338 27.7226 67.6967 27.6736 67.677 27.617C67.5297 27.1519 67.3632 26.8974 67.1928 26.8783H67.1622C66.9947 26.9082 66.8356 26.9735 66.6952 27.0696C66.4439 27.2322 66.1555 27.3284 65.8569 27.3491C65.753 27.3494 65.6496 27.3333 65.5507 27.3012C65.2977 27.1997 65.0787 27.0285 64.9191 26.8074C64.8685 26.7474 64.8148 26.6899 64.7584 26.6352C64.6167 26.513 64.4363 26.4452 64.2493 26.4438C64.1343 26.4437 64.0207 26.4685 63.9163 26.5165C63.8295 26.564 63.7463 26.6177 63.6674 26.6773C63.4692 26.8383 63.2389 26.9551 62.9919 27.0199C62.9084 27.0393 62.823 27.0489 62.7373 27.0486C62.6732 27.0487 62.6092 27.0435 62.5459 27.0333C62.1076 26.9352 61.7167 26.6884 61.4397 26.3347C61.3784 26.262 61.3172 26.1854 61.2483 26.1089C61.0918 25.8763 60.8868 25.6805 60.6473 25.5347C60.5461 25.4901 60.4365 25.4672 60.3258 25.4677C59.878 25.4677 59.3517 25.7912 58.9421 26.0706C58.8942 26.1036 58.8375 26.1216 58.7794 26.1223C58.7325 26.1222 58.6864 26.1106 58.645 26.0886C58.6037 26.0666 58.5683 26.0348 58.5421 25.996L58.387 25.772C58.3656 25.7409 58.3505 25.7058 58.3427 25.6688C58.3348 25.6319 58.3343 25.5937 58.3413 25.5565C58.3482 25.5194 58.3624 25.4839 58.3831 25.4523C58.4037 25.4206 58.4305 25.3933 58.4617 25.372C59.0052 25.0007 59.6502 24.6199 60.3239 24.6199C60.5645 24.6191 60.8024 24.6714 61.0206 24.773C61.3809 24.9692 61.6903 25.2471 61.9239 25.5845C61.9794 25.6534 62.0349 25.7223 62.0923 25.7893C62.1746 25.8869 62.4751 26.2065 62.7392 26.2065C62.7609 26.2085 62.7826 26.2085 62.8043 26.2065C62.9323 26.166 63.0513 26.101 63.1545 26.0151C63.2758 25.9239 63.4037 25.842 63.5373 25.7701C63.7596 25.6634 64.0027 25.6072 64.2493 25.6055C64.6478 25.6063 65.0324 25.7526 65.3306 26.017C65.4099 26.0929 65.4852 26.1728 65.5564 26.2562C65.6252 26.3513 65.7133 26.4309 65.8148 26.4897C65.8307 26.4917 65.8468 26.4917 65.8627 26.4897C66.0182 26.4601 66.1665 26.4003 66.299 26.3137C66.5605 26.1462 66.8601 26.0475 67.1699 26.0266C67.2119 26.0237 67.2541 26.0237 67.2962 26.0266H67.3344C68.033 26.1357 68.3297 26.8323 68.4924 27.3472C68.5036 27.3834 68.5075 27.4214 68.5039 27.4591C68.5004 27.4968 68.4894 27.5335 68.4716 27.5669C68.4538 27.6004 68.4295 27.63 68.4003 27.654C68.371 27.678 68.3372 27.696 68.301 27.707L68.0407 27.7893C68.0118 27.7999 67.9815 27.8063 67.9507 27.8084Z" fill="white"/>
</svg>
