<svg width="80" height="80" viewBox="0 0 80 80" fill="none" xmlns="http://www.w3.org/2000/svg">
<path d="M64.9103 63.4981H20.5118C19.0066 63.4961 17.5635 62.8974 16.4989 61.8332C15.4343 60.769 14.8351 59.3261 14.8326 57.8208V5.67927C14.8346 4.17365 15.4336 2.73028 16.4982 1.66564C17.5629 0.601012 19.0062 0.00201488 20.5118 0H61.826L70.5972 6.99104V57.8246C70.5941 59.3307 69.9936 60.774 68.9274 61.8378C67.8611 62.9015 66.4164 63.4987 64.9103 63.4981Z" fill="#A0A2A3"/>
<path d="M20.5118 1.63525C19.4396 1.63626 18.4116 2.06263 17.6535 2.82078C16.8953 3.57893 16.469 4.60691 16.468 5.67909V57.8206C16.4695 58.8926 16.896 59.9203 17.654 60.6784C18.4121 61.4364 19.4398 61.8629 20.5118 61.8644H64.9102C65.9821 61.8624 67.0095 61.4357 67.7674 60.6778C68.5254 59.9199 68.952 58.8925 68.9541 57.8206V7.77907L61.2453 1.63525H20.5118Z" fill="white"/>
<path d="M56.2743 16.7959H36.0608C35.8294 16.7684 35.6162 16.657 35.4615 16.4827C35.3068 16.3085 35.2213 16.0836 35.2213 15.8506C35.2213 15.6176 35.3068 15.3927 35.4615 15.2185C35.6162 15.0443 35.8294 14.9329 36.0608 14.9053H56.2743C56.4078 14.8895 56.5433 14.9021 56.6716 14.9423C56.7999 14.9826 56.9183 15.0495 57.0188 15.1389C57.1194 15.2282 57.1999 15.3378 57.255 15.4605C57.3102 15.5831 57.3386 15.7161 57.3386 15.8506C57.3386 15.9851 57.3102 16.1181 57.255 16.2408C57.1999 16.3635 57.1194 16.4731 57.0188 16.5624C56.9183 16.6517 56.7999 16.7187 56.6716 16.7589C56.5433 16.7992 56.4078 16.8118 56.2743 16.7959Z" fill="#213564"/>
<path d="M60.1753 19.9868H36.0608C35.9272 20.0027 35.7918 19.9901 35.6635 19.9499C35.5351 19.9096 35.4168 19.8426 35.3162 19.7533C35.2156 19.664 35.1351 19.5544 35.08 19.4317C35.0249 19.309 34.9964 19.176 34.9964 19.0415C34.9964 18.907 35.0249 18.7741 35.08 18.6514C35.1351 18.5287 35.2156 18.4191 35.3162 18.3298C35.4168 18.2405 35.5351 18.1735 35.6635 18.1332C35.7918 18.093 35.9272 18.0804 36.0608 18.0963H60.1753C60.4066 18.1238 60.6199 18.2352 60.7746 18.4094C60.9293 18.5836 61.0148 18.8085 61.0148 19.0415C61.0148 19.2745 60.9293 19.4994 60.7746 19.6737C60.6199 19.8479 60.4066 19.9593 60.1753 19.9868Z" fill="#213564"/>
<path d="M56.2743 29.2073H36.0608C35.8294 29.2348 35.6162 29.3462 35.4615 29.5204C35.3068 29.6946 35.2213 29.9196 35.2213 30.1526C35.2213 30.3855 35.3068 30.6105 35.4615 30.7847C35.6162 30.9589 35.8294 31.0703 36.0608 31.0978H56.2762C56.5075 31.0703 56.7208 30.9589 56.8755 30.7847C57.0302 30.6105 57.1157 30.3855 57.1157 30.1526C57.1157 29.9196 57.0302 29.6946 56.8755 29.5204C56.7208 29.3462 56.5075 29.2348 56.2762 29.2073H56.2743Z" fill="#213564"/>
<path d="M60.1753 32.4001H36.0608C35.8294 32.4277 35.6162 32.5391 35.4615 32.7133C35.3068 32.8875 35.2213 33.1124 35.2213 33.3454C35.2213 33.5784 35.3068 33.8033 35.4615 33.9775C35.6162 34.1518 35.8294 34.2632 36.0608 34.2907H60.1772C60.4086 34.2632 60.6218 34.1518 60.7766 33.9775C60.9313 33.8033 61.0167 33.5784 61.0167 33.3454C61.0167 33.1124 60.9313 32.8875 60.7766 32.7133C60.6218 32.5391 60.4086 32.4277 60.1772 32.4001H60.1753Z" fill="#213564"/>
<path d="M56.2743 45.4019H36.0608C35.8294 45.3743 35.6162 45.2629 35.4615 45.0887C35.3068 44.9145 35.2213 44.6896 35.2213 44.4566C35.2213 44.2236 35.3068 43.9987 35.4615 43.8245C35.6162 43.6502 35.8294 43.5388 36.0608 43.5113H56.2743C56.4078 43.4954 56.5433 43.508 56.6716 43.5483C56.7999 43.5885 56.9183 43.6555 57.0188 43.7448C57.1194 43.8341 57.1999 43.9437 57.255 44.0664C57.3102 44.1891 57.3386 44.3221 57.3386 44.4566C57.3386 44.5911 57.3102 44.7241 57.255 44.8467C57.1999 44.9694 57.1194 45.079 57.0188 45.1683C56.9183 45.2577 56.7999 45.3246 56.6716 45.3649C56.5433 45.4051 56.4078 45.4177 56.2743 45.4019Z" fill="#213564"/>
<path d="M60.1753 48.5946H36.0608C35.8277 48.569 35.6124 48.4582 35.4559 48.2836C35.2995 48.109 35.213 47.8828 35.213 47.6484C35.213 47.4139 35.2995 47.1877 35.4559 47.0131C35.6124 46.8385 35.8277 46.7278 36.0608 46.7021H60.1753C60.4083 46.7278 60.6237 46.8385 60.7801 47.0131C60.9366 47.1877 61.0231 47.4139 61.0231 47.6484C61.0231 47.8828 60.9366 48.109 60.7801 48.2836C60.6237 48.4582 60.4083 48.569 60.1753 48.5946Z" fill="#213564"/>
<path d="M27.6437 20.7921C29.4901 20.7921 30.987 19.2953 30.987 17.4489C30.987 15.6025 29.4901 14.1057 27.6437 14.1057C25.7973 14.1057 24.3005 15.6025 24.3005 17.4489C24.3005 19.2953 25.7973 20.7921 27.6437 20.7921Z" fill="#213564"/>
<path d="M27.3125 18.7189C27.2372 18.7186 27.1639 18.6947 27.103 18.6504L26.3186 18.0468C26.2449 17.9908 26.1965 17.9077 26.184 17.816C26.1715 17.7242 26.196 17.6312 26.252 17.5575C26.3081 17.4838 26.3911 17.4354 26.4829 17.4229C26.5746 17.4104 26.6676 17.4348 26.7413 17.4909L27.2496 17.8717L28.4529 16.3029C28.4804 16.2663 28.5149 16.2355 28.5544 16.2124C28.5939 16.1893 28.6376 16.1743 28.683 16.1683C28.7284 16.1623 28.7745 16.1653 28.8187 16.1773C28.8628 16.1893 28.9042 16.21 28.9403 16.2381C29.0135 16.2946 29.0613 16.3778 29.0735 16.4695C29.0856 16.5611 29.061 16.6538 29.005 16.7274L27.5904 18.5704C27.5578 18.6131 27.5157 18.6478 27.4675 18.6715C27.4193 18.6953 27.3662 18.7076 27.3125 18.7075V18.7189Z" fill="white"/>
<path d="M30.9851 31.749C30.9856 32.6341 30.6348 33.4833 30.0098 34.1102C29.3848 34.737 28.5365 35.0901 27.6514 35.0922C27.6228 35.0941 27.5942 35.0941 27.5657 35.0922C26.9087 35.0753 26.2712 34.8651 25.7331 34.4877C25.195 34.1104 24.7801 33.5828 24.5403 32.9708C24.3006 32.3589 24.2466 31.6898 24.3852 31.0474C24.5238 30.4049 24.8488 29.8176 25.3195 29.3589C25.7902 28.9002 26.3857 28.5906 27.0315 28.4686C27.6774 28.3467 28.3448 28.418 28.9504 28.6735C29.5559 28.929 30.0726 29.3574 30.4359 29.9051C30.7992 30.4528 30.9928 31.0955 30.9927 31.7528L30.9851 31.749Z" fill="#213564"/>
<path d="M27.6437 49.3961C29.4901 49.3961 30.987 47.8993 30.987 46.0529C30.987 44.2065 29.4901 42.7097 27.6437 42.7097C25.7973 42.7097 24.3005 44.2065 24.3005 46.0529C24.3005 47.8993 25.7973 49.3961 27.6437 49.3961Z" fill="#213564"/>
<path d="M70.4182 7.21765H63.5471C63.0452 7.21765 62.5638 7.01827 62.2089 6.66336C61.854 6.30846 61.6546 5.82711 61.6546 5.3252V0.251361C61.6546 0.229275 61.6608 0.207631 61.6725 0.188889C61.6842 0.170148 61.7009 0.15506 61.7207 0.145342C61.7405 0.135624 61.7627 0.131665 61.7847 0.133915C61.8067 0.136165 61.8275 0.144534 61.845 0.158071L70.4886 7.01203C70.5081 7.02711 70.5223 7.0479 70.5294 7.07148C70.5364 7.09507 70.5359 7.12026 70.5279 7.14355C70.52 7.16684 70.5049 7.18706 70.4849 7.20137C70.4649 7.21568 70.4409 7.22337 70.4163 7.22336L70.4182 7.21765Z" fill="#213564"/>
<path d="M42.3664 25.489C39.181 22.8011 35.283 21.0969 31.1468 20.5839C27.0105 20.0709 22.8143 20.7712 19.0688 22.5996C15.3233 24.4279 12.1899 27.3056 10.0501 30.8822C7.91016 34.4589 6.85599 38.5805 7.01582 42.7454C7.17564 46.9103 8.54256 50.9389 10.9503 54.3411C13.358 57.7433 16.7026 60.3723 20.5772 61.9082C24.4518 63.4442 28.6894 63.8209 32.7742 62.9924C36.8589 62.1639 40.6149 60.1661 43.5849 57.2419L69.9574 79.4944C70.1548 79.6712 70.3857 79.8066 70.6363 79.8926C70.887 79.9786 71.1523 80.0135 71.4167 79.9952C71.681 79.9769 71.939 79.9057 72.1754 79.7859C72.4118 79.6662 72.6217 79.5002 72.7929 79.2979C72.964 79.0956 73.0928 78.861 73.1717 78.608C73.2506 78.355 73.2779 78.0888 73.2522 77.8251C73.2264 77.5614 73.1479 77.3055 73.0215 77.0726C72.8951 76.8397 72.7233 76.6345 72.5162 76.4691L46.1399 54.2128C49.2038 49.816 50.5153 44.4334 49.8173 39.12C49.1192 33.8065 46.462 28.9453 42.3664 25.489ZM40.6663 52.071C38.6117 54.5053 35.8814 56.2757 32.8207 57.1583C29.7599 58.041 26.5062 57.9963 23.4709 57.0298C20.4356 56.0634 17.755 54.2186 15.7681 51.7288C13.7812 49.2389 12.5771 46.2158 12.3083 43.0418C12.0394 39.8677 12.7177 36.6851 14.2575 33.8965C15.7973 31.1079 18.1294 28.8385 20.9589 27.3753C23.7884 25.912 26.9882 25.3206 30.1538 25.6759C33.3194 26.0311 36.3086 27.317 38.7433 29.371C42.0081 32.1265 44.0448 36.0659 44.4054 40.3228C44.766 44.5797 43.421 48.8056 40.6663 52.071Z" fill="#64696F"/>
<path d="M17.9682 53.9941C14.8779 51.3865 12.8812 47.712 12.3747 43.7003C11.8682 39.6887 12.889 35.6332 15.2343 32.3394C14.9258 32.6491 14.6282 32.974 14.3413 33.3141C11.6492 36.5865 10.3551 40.7879 10.7394 45.0078C11.1237 49.2278 13.1554 53.1263 16.3943 55.8585C19.6332 58.5907 23.8184 59.9366 28.0427 59.6043C32.2671 59.2721 36.1903 57.2885 38.9623 54.0835C39.2504 53.7447 39.5208 53.3969 39.7733 53.0402C36.9218 55.9068 33.0964 57.5961 29.0569 57.7728C25.0174 57.9496 21.0592 56.6007 17.9682 53.9941Z" fill="#131E29"/>
<path d="M35.1165 44.4555C35.1165 44.7079 35.2168 44.9501 35.3953 45.1286C35.5738 45.3071 35.8159 45.4074 36.0684 45.4074H44.0247C44.1737 44.7846 44.2843 44.1532 44.356 43.5168H36.0589C35.8104 43.5193 35.5727 43.6189 35.3966 43.7943C35.2205 43.9696 35.1199 44.2069 35.1165 44.4555Z" fill="#B2173B"/>
<path d="M28.1791 49.3412C30.0016 49.0454 31.2393 47.3281 30.9434 45.5055C30.6476 43.683 28.9303 42.4453 27.1077 42.7412C25.2852 43.037 24.0476 44.7543 24.3434 46.5769C24.6392 48.3994 26.3565 49.6371 28.1791 49.3412Z" fill="#B2173B"/>
<path d="M35.1146 33.3446C35.1146 33.5971 35.2149 33.8392 35.3934 34.0178C35.5719 34.1963 35.814 34.2966 36.0665 34.2966H42.6768C42.3395 33.6411 41.9578 33.0095 41.5345 32.406H36.0722C35.8211 32.4045 35.5795 32.5023 35.4001 32.6781C35.2207 32.8539 35.1181 33.0935 35.1146 33.3446Z" fill="#B2173B"/>
<path d="M43.661 46.7021H36.0608C35.8277 46.7278 35.6124 46.8385 35.4559 47.0131C35.2995 47.1877 35.213 47.4139 35.213 47.6484C35.213 47.8828 35.2995 48.109 35.4559 48.2836C35.6124 48.4582 35.8277 48.569 36.0608 48.5946H42.9147C43.2041 47.9806 43.4534 47.3484 43.661 46.7021Z" fill="#B2173B"/>
<path d="M35.1146 30.1518C35.1146 30.4042 35.2149 30.6464 35.3934 30.8249C35.5719 31.0034 35.814 31.1037 36.0665 31.1037H40.5083C39.9667 30.4848 39.3793 29.9076 38.751 29.3769L38.5454 29.2131H36.0703C35.8195 29.2121 35.5784 29.3101 35.3994 29.4859C35.2204 29.6617 35.1181 29.9009 35.1146 30.1518Z" fill="#B2173B"/>
<path d="M24.3024 31.6615C24.2908 32.1004 24.3658 32.5373 24.5232 32.9472C24.6806 33.357 24.9172 33.7318 25.2196 34.0502C25.522 34.3685 25.8842 34.624 26.2854 34.8022C26.6867 34.9804 27.1192 35.0777 27.5581 35.0885C27.5866 35.0904 27.6152 35.0904 27.6437 35.0885C28.3014 35.0887 28.9446 34.8949 29.4927 34.5313C30.0407 34.1677 30.4694 33.6506 30.725 33.0446C30.9806 32.4386 31.0518 31.7707 30.9296 31.1244C30.8075 30.4782 30.4975 29.8823 30.0383 29.4114C29.5792 28.9405 28.9914 28.6155 28.3484 28.477C27.7055 28.3386 27.0359 28.3928 26.4237 28.633C25.8114 28.8732 25.2836 29.2886 24.9063 29.8273C24.529 30.366 24.3189 31.0041 24.3024 31.6615Z" fill="#B2173B"/>
<path d="M27.3124 33.0209C27.2368 33.0209 27.1633 32.9961 27.103 32.9504L26.3186 32.3488C26.2822 32.321 26.2517 32.2864 26.2287 32.2468C26.2057 32.2073 26.1907 32.1636 26.1846 32.1182C26.1785 32.0729 26.1814 32.0268 26.1931 31.9825C26.2049 31.9383 26.2252 31.8968 26.2529 31.8604C26.2807 31.8241 26.3153 31.7935 26.3549 31.7705C26.3945 31.7475 26.4382 31.7326 26.4835 31.7265C26.5289 31.7204 26.575 31.7233 26.6192 31.735C26.6634 31.7467 26.7049 31.767 26.7413 31.7948L27.2496 32.1851L28.4529 30.6163C28.509 30.5432 28.5918 30.4954 28.6832 30.4833C28.7745 30.4711 28.867 30.4957 28.9403 30.5515V30.563V30.5515C29.0134 30.608 29.0613 30.6912 29.0734 30.7828C29.0856 30.8745 29.0609 30.9672 29.005 31.0408L27.5904 32.8857C27.5575 32.9281 27.5154 32.9625 27.4672 32.9862C27.4191 33.01 27.3661 33.0225 27.3124 33.0228V33.0209Z" fill="white"/>
</svg>
