<svg width="39" height="50" viewBox="0 0 39 50" fill="none" xmlns="http://www.w3.org/2000/svg">
<path d="M15.3757 0.387393C11.6678 1.11254 8.26033 2.92675 5.58881 5.59827C2.91729 8.26979 1.10308 11.6773 0.377931 15.3851C-0.300288 18.7189 -0.0625593 22.1742 1.06594 25.3836C2.19443 28.593 4.17156 31.4367 6.78699 33.6123C7.24891 34.0041 7.61585 34.4956 7.86007 35.0498C8.10429 35.6041 8.21943 36.2065 8.19681 36.8118V40.5512C8.1955 40.9551 8.27382 41.3554 8.42749 41.729C8.58116 42.1026 8.80714 42.4422 9.09231 42.7282C9.37747 43.0143 9.71628 43.2413 10.0893 43.3962C10.4624 43.5511 10.8624 43.6308 11.2663 43.6308H17.6754V24.1138C16.6435 23.7876 15.7418 23.1423 15.1003 22.2708C14.4588 21.3993 14.1106 20.3467 14.1058 19.2645C14.1058 17.9068 14.6452 16.6048 15.6052 15.6447C16.5653 14.6847 17.8673 14.1453 19.225 14.1453C20.5837 14.1453 21.8868 14.6844 22.8484 15.6441C23.81 16.6039 24.3516 17.9059 24.3543 19.2645C24.349 20.3534 23.9959 21.412 23.3466 22.2862C22.6973 23.1603 21.7858 23.8042 20.7448 24.1238V43.7008H27.1539C27.5578 43.7008 27.9578 43.6211 28.3308 43.4662C28.7039 43.3113 29.0427 43.0843 29.3279 42.7982C29.613 42.5121 29.8389 42.1725 29.9926 41.7989C30.1462 41.4254 30.2247 41.0252 30.2234 40.6213V36.8818C30.2008 36.2766 30.3159 35.6742 30.5601 35.1199C30.8043 34.5657 31.1713 34.074 31.6332 33.6823C33.7612 31.8838 35.4724 29.644 36.6482 27.1181C37.8239 24.5922 38.4361 21.8406 38.4422 19.0545C38.4168 16.2185 37.7642 13.4233 36.5314 10.8692C35.2985 8.31506 33.5158 6.06523 31.3112 4.28109C29.1066 2.49694 26.5346 1.22265 23.7795 0.549478C21.0245 -0.123697 18.1546 -0.179059 15.3757 0.387393Z" fill="#E8E8E8"/>
<path d="M27.1238 46.9304H11.2362C10.8278 46.9304 10.4363 47.0926 10.1475 47.3814C9.85875 47.6702 9.69653 48.0619 9.69653 48.4702C9.69653 48.672 9.73632 48.8718 9.81382 49.058C9.89133 49.2443 10.0049 49.4133 10.148 49.5555C10.2911 49.6977 10.461 49.8101 10.6478 49.8864C10.8346 49.9627 11.0345 50.0013 11.2362 50H27.1238C27.3255 50.0013 27.5256 49.9627 27.7123 49.8864C27.8991 49.8101 28.0689 49.6977 28.212 49.5555C28.3551 49.4133 28.4687 49.2443 28.5462 49.058C28.6237 48.8718 28.6636 48.672 28.6636 48.4702C28.6636 48.0619 28.5014 47.6702 28.2126 47.3814C27.9239 47.0926 27.5322 46.9304 27.1238 46.9304Z" fill="#E8E8E8"/>
</svg>
