<svg width="52" height="50" viewBox="0 0 52 50" fill="none" xmlns="http://www.w3.org/2000/svg">
<path d="M50.4932 32.0276C49.8996 31.6607 49.2254 31.4444 48.5292 31.3974C47.833 31.3504 47.1359 31.4742 46.4984 31.7579L37.3605 35.9024C37.143 36.0029 36.969 36.1781 36.87 36.3963C36.771 36.6145 36.7537 36.861 36.8213 37.0908C36.9092 37.3507 36.9727 37.6182 37.011 37.8898C37.1178 38.6139 37.0318 39.3533 36.7618 40.0336C36.4918 40.7138 36.0474 41.3109 35.4731 41.7647C34.725 42.356 33.8002 42.6794 32.8466 42.6834C32.6205 42.6986 32.3936 42.6986 32.1674 42.6834L18.0461 40.3765C17.7006 40.3063 17.3961 40.1045 17.1967 39.8138C16.9973 39.523 16.9187 39.1661 16.9776 38.8185C17.0342 38.4759 17.2225 38.1691 17.5025 37.9638C17.7825 37.7585 18.1319 37.671 18.4756 37.72L31.2287 39.6075C31.9381 39.7841 32.6875 39.6953 33.3359 39.3578C33.5715 39.1725 33.7486 38.9232 33.846 38.6398C33.9434 38.3564 33.957 38.0509 33.8851 37.76C33.8243 37.3686 33.6637 36.9994 33.4188 36.688C33.174 36.3767 32.853 36.1336 32.487 35.9823L22.3005 31.6181C22.0062 31.4949 21.6907 31.4305 21.3717 31.4284H10.0667C9.53908 31.4305 9.02682 31.606 8.60867 31.9277L6.19183 33.7753V33.3858C6.19183 33.0202 6.04664 32.6697 5.78819 32.4112C5.52973 32.1528 5.17916 32.0076 4.81365 32.0076H1.37825C1.01274 32.0076 0.662171 32.1528 0.403713 32.4112C0.145255 32.6697 7.23667e-05 33.0202 7.23667e-05 33.3858V46.9378C-0.00181873 47.1231 0.0333705 47.307 0.103695 47.4785C0.174019 47.6501 0.277967 47.8057 0.409442 47.9364C0.540283 48.067 0.696297 48.1698 0.867942 48.2384C1.03959 48.3071 1.2233 48.3403 1.40812 48.3359H4.84364C5.20915 48.3359 5.55972 48.1908 5.81817 47.9323C6.07663 47.6738 6.22182 47.3233 6.22182 46.9578V46.1888L22.1407 49.804C23.1859 50.0411 24.2684 50.0634 25.3225 49.8694C26.3766 49.6754 27.3803 49.2692 28.2726 48.6755L50.5431 35.1334C50.8035 34.9751 51.0185 34.7521 51.1672 34.4861C51.3159 34.2201 51.3933 33.9202 51.392 33.6154C51.3923 33.3097 51.3133 33.0092 51.1628 32.7432C51.0123 32.4771 50.7953 32.2546 50.5331 32.0974L50.4932 32.0276Z" fill="#E8E8E8"/>
<path d="M45.7595 4.68387C42.7644 1.6868 38.7016 0.00196923 34.4645 4.93848e-06C32.3631 -0.00164717 30.282 0.411235 28.3404 1.21495C26.3988 2.01866 24.6348 3.19749 23.1494 4.68387C21.6642 6.16808 20.4861 7.93045 19.6824 9.87024C18.8788 11.81 18.4653 13.8892 18.4657 15.9888C18.4653 18.0885 18.8788 20.1678 19.6824 22.1076C20.4861 24.0474 21.6642 25.8097 23.1494 27.2939C24.6348 28.7803 26.3988 29.959 28.3404 30.7627C30.282 31.5665 32.3631 31.9793 34.4645 31.9777C36.5642 31.978 38.6433 31.5646 40.5831 30.7609C42.5229 29.9572 44.2853 28.7791 45.7695 27.2939C47.2547 25.8097 48.4328 24.0474 49.2365 22.1076C50.0401 20.1678 50.4537 18.0885 50.4533 15.9888C50.4524 13.8885 50.0372 11.8088 49.2318 9.86902C48.4264 7.92919 47.2465 6.16726 45.7595 4.68387ZM36.1322 23.4589V25.1668C36.1322 25.4316 36.027 25.6856 35.8398 25.8729C35.6525 26.0601 35.3984 26.1654 35.1335 26.1654H33.7754C33.5105 26.1654 33.2565 26.0601 33.0693 25.8729C32.882 25.6856 32.7767 25.4316 32.7767 25.1668V23.4689C30.5197 23.0495 29.0117 21.7512 28.6621 19.8437C28.6475 19.7693 28.6494 19.6926 28.6676 19.619C28.6858 19.5455 28.7199 19.4768 28.7675 19.4178C28.815 19.3588 28.8751 19.311 28.9431 19.2776C29.0112 19.2442 29.0857 19.226 29.1615 19.2246H31.099C31.2092 19.2183 31.3185 19.248 31.4103 19.3093C31.5022 19.3705 31.5716 19.46 31.6082 19.5642C31.9278 20.5629 33.0363 21.1521 34.6042 21.1521C36.1721 21.1521 37.3107 20.3931 37.3107 19.2945C37.3107 18.3658 36.5817 17.8365 34.794 17.437L32.9065 17.0275C30.25 16.4782 28.9118 15.09 28.9118 12.873C28.9118 10.6559 30.3898 9.05805 32.7367 8.52875V6.81106C32.7367 6.54619 32.842 6.29213 33.0293 6.10484C33.2166 5.91755 33.4705 5.81238 33.7354 5.81238H35.0837C35.3485 5.81238 35.6025 5.91755 35.7898 6.10484C35.9771 6.29213 36.0824 6.54619 36.0824 6.81106V8.53875C37.0065 8.67705 37.8672 9.09146 38.5516 9.72773C39.236 10.364 39.712 11.1923 39.9172 12.104C39.932 12.1792 39.9299 12.2568 39.9111 12.3311C39.8924 12.4054 39.8573 12.4746 39.8086 12.5338C39.7599 12.593 39.6988 12.6407 39.6295 12.6734C39.5603 12.7062 39.4845 12.7231 39.4079 12.7231H37.5604C37.4544 12.7273 37.3498 12.6977 37.2618 12.6384C37.1738 12.5792 37.107 12.4934 37.071 12.3936C36.8673 11.8801 36.5015 11.4472 36.0292 11.1606C35.5569 10.874 35.0041 10.7494 34.4545 10.8058C32.9865 10.8058 31.9278 11.5148 31.9278 12.6233C31.9278 13.5221 32.6169 14.0115 34.3247 14.401L36.0824 14.7705C39.0085 15.3797 40.2668 16.628 40.2668 18.905C40.3067 21.3418 38.7388 22.9696 36.1622 23.4589H36.1322Z" fill="#E8E8E8"/>
</svg>
