<svg width="100%" height="100%" viewBox="0 0 153 50" fill="none" xmlns="http://www.w3.org/2000/svg">
<path d="M42.8952 0H7.10484C3.18095 0 0 3.18095 0 7.10484V42.8952C0 46.8191 3.18095 50 7.10484 50H42.8952C46.8191 50 50 46.8191 50 42.8952V7.10484C50 3.18095 46.8191 0 42.8952 0Z" fill="#B2173B"/>
<path d="M46.914 29.337C42.9706 33.2111 40.531 35.1481 39.5951 35.1481C38.9834 35.1481 38.6776 34.4457 38.6776 33.0408C38.6776 31.636 38.9243 29.283 39.4177 25.9818C39.9132 22.6848 41.052 16.4088 42.834 7.15385L42.6781 7.07739C41.9379 7.10186 40.8868 7.44951 39.5248 8.12033C38.1627 8.79116 37.3074 9.41305 36.9587 9.98601L36.9985 9.94625C33.785 16.471 31.0446 21.8916 28.7773 26.2082C28.2573 27.1828 27.8801 27.925 27.6456 28.4347H27.3398C27.4193 27.1318 27.5732 24.1937 27.8016 19.6202C28.03 15.0468 28.3715 11.0279 28.8262 7.56369C28.7414 7.531 28.6619 7.48563 28.5907 7.42912C27.4542 7.44955 26.3423 7.76327 25.3628 8.33985C24.3832 8.91644 23.5693 9.73633 22.9998 10.72C22.0965 12.6326 20.3196 16.3741 17.6689 21.9447C15.0182 27.5152 13.1576 31.4392 12.0872 33.7167C11.3083 35.0971 10.0329 36.186 8.261 36.9832C7.36181 37.391 6.22303 37.8589 4.84468 38.387C3.67328 38.855 3.08911 39.4881 3.08911 40.2802C3.08911 42.0643 3.39496 42.9564 4.00665 42.9564C5.02615 42.9564 6.20978 42.5068 7.55755 41.6076C8.8663 40.7419 10.0604 39.7143 11.1115 38.5491C12.0215 37.5663 12.8205 36.4863 13.4941 35.3286L22.8438 15.8522H23.116L22.5624 37.075C22.5624 37.6469 22.905 38.0292 23.5962 38.2249C24.2324 37.8865 28.553 29.8325 36.558 14.063C36.5748 13.9951 36.6143 13.935 36.6699 13.8927C36.7256 13.8504 36.794 13.8285 36.8639 13.8305C37.0199 13.8305 37.0994 13.9162 37.0994 14.0844C37.0311 14.6497 36.929 15.2104 36.7935 15.7635C36.5917 16.7116 36.3072 18.2103 35.9433 20.2319C35.5793 22.2536 35.1175 24.9634 34.5578 28.3338C34.1877 30.4881 33.9923 32.6687 33.9736 34.8545C33.9736 37.5765 34.7087 38.9365 36.1788 38.9345C38.2484 38.9345 41.8166 36.4684 46.8835 31.536L49.9603 28.4776V26.2449L46.914 29.337Z" fill="white"/>
<path d="M67.4242 13.3779L67.2315 6.2853L64.5339 13.7969H62.7875L60.1542 6.30366L60.0104 13.3779L61.3348 13.7388V14.4514H57.4291V13.7388L58.3986 13.384L58.9002 5.22707L57.897 4.95181V4.21777H62.3226L64.3596 10.3103L66.5005 4.21777H71.0393V4.9304L69.975 5.22095L70.2166 13.3779L71.3329 13.7388V14.4514H66.0509V13.7388L67.4242 13.3779Z" fill="#213564"/>
<path d="M75.3885 6.86938C77.5539 6.86938 78.9914 7.98267 78.9914 10.7445C78.9914 13.5063 77.5539 14.6379 75.3885 14.6379C73.2231 14.6379 71.804 13.491 71.804 10.7445C71.804 7.99796 73.2231 6.86938 75.3885 6.86938ZM75.3885 13.4573C76.1653 13.4573 76.4375 12.3441 76.4375 10.7934C76.4375 9.11431 76.1806 8.04078 75.3885 8.04078C74.5963 8.04078 74.3394 9.10819 74.3394 10.7934C74.3394 12.3441 74.6147 13.4573 75.3885 13.4573Z" fill="#213564"/>
<path d="M84.1937 13.7663L84.7901 13.491V10.2918C84.7901 9.01644 84.3711 8.64636 83.4964 8.64636C83.308 8.64777 83.1199 8.66311 82.9337 8.69224V13.491L83.5301 13.7663V14.4452H79.6855V13.7663L80.5083 13.491V8.74117L79.6855 8.3711V7.7227L82.9 6.86938V8.09278L84.888 6.86938C86.4387 6.86938 87.2125 7.80528 87.2125 9.31617V13.491L87.9251 13.7663V14.4452H84.1937V13.7663Z" fill="#213564"/>
<path d="M90.9287 10.7598C90.9929 12.2309 91.4792 12.8457 92.9809 12.8457C93.6023 12.8351 94.2119 12.6746 94.7579 12.3777L95.1126 13.0873L92.7699 14.5737C92.5695 14.6207 92.3639 14.6423 92.1582 14.6379C89.8827 14.6379 88.6226 13.3472 88.6226 10.6313C88.6226 8.40168 89.846 6.86938 92.256 6.86938C93.9535 6.86938 95.1004 7.83586 95.1004 9.66178C95.1032 10.048 95.059 10.4331 94.9689 10.8087L90.9287 10.7598ZM90.9439 9.80858L92.779 9.71071C92.8296 9.494 92.8573 9.27258 92.8616 9.05008C92.8616 8.33745 92.5558 7.93374 92.0542 7.93374C91.3782 7.92762 91.0265 8.69224 90.9439 9.80858Z" fill="#213564"/>
<path d="M100.719 11.0994L101.606 8.12966L100.554 7.70759V7.06226H103.863V7.70759L103.138 8.12966L101.398 12.8214C100.606 14.9623 99.3944 16.8922 97.9233 17.8312C97.2443 17.8312 96.5164 17.4274 96.5164 16.6078V16.464C97.8744 16.1062 98.9418 15.6566 99.5749 14.4607H98.6573L96.4124 8.14496L95.66 7.70759V7.06226H100.006V7.70759L98.9081 8.12966L99.8777 11.0994L100.312 12.699L100.719 11.0994Z" fill="#213564"/>
<path d="M104.175 13.7663L105.031 13.4911V5.13835L104.19 4.76828V4.04036L107.453 3.39502V13.488L108.31 13.7633V14.4422H104.175V13.7663Z" fill="#213564"/>
<path d="M111.316 10.7598C111.381 12.2309 111.864 12.8457 113.366 12.8457C113.987 12.8351 114.597 12.6746 115.143 12.3777L115.5 13.0873L113.158 14.5737C112.957 14.6206 112.752 14.6422 112.546 14.6379C110.267 14.6379 109.007 13.3472 109.007 10.6313C109.007 8.40168 110.231 6.86938 112.644 6.86938C114.338 6.86938 115.485 7.83586 115.485 9.66177C115.487 10.0478 115.444 10.4327 115.357 10.8087L111.316 10.7598ZM111.332 9.80858L113.167 9.71071C113.216 9.49391 113.243 9.27247 113.246 9.05008C113.246 8.33745 112.94 7.93373 112.439 7.93373C111.751 7.92762 111.411 8.69224 111.332 9.80858Z" fill="#213564"/>
<path d="M120.7 13.7663L121.312 13.491V10.2918C121.312 9.01644 120.889 8.64636 120.018 8.64636C119.828 8.64777 119.639 8.6631 119.452 8.69224V13.491L120.064 13.7663V14.4452H116.195V13.7663L117.017 13.491V8.74117L116.195 8.3711V7.7227L119.409 6.86938V8.09278L121.394 6.86938C122.945 6.86938 123.722 7.80528 123.722 9.31617V13.491L124.431 13.7663V14.4452H120.7V13.7663Z" fill="#213564"/>
<path d="M129.731 13.4574L127.896 14.638C126.086 14.4759 125.116 13.1363 125.116 10.9219C125.116 8.7076 126.199 6.91533 129.028 6.91533C129.262 6.91398 129.495 6.94172 129.722 6.99791V5.13835L128.881 4.76828V4.04036L132.145 3.39502V13.2158L133.001 13.4911V14.1547L129.731 14.638V13.4574ZM128.955 8.12954C128.23 8.12954 127.695 8.6923 127.695 10.5763C127.695 12.3869 128.438 12.8885 129.358 12.8885C129.483 12.8841 129.608 12.8729 129.731 12.8549V8.67701C129.685 8.51001 129.583 8.36418 129.441 8.26436C129.299 8.16454 129.127 8.1169 128.955 8.12954Z" fill="#213564"/>
<path d="M135.787 10.7598C135.855 12.2309 136.338 12.8457 137.84 12.8457C138.461 12.8351 139.071 12.6746 139.617 12.3777L139.971 13.0873L137.632 14.5737C137.431 14.6206 137.226 14.6422 137.02 14.6379C134.741 14.6379 133.481 13.3472 133.481 10.6313C133.481 8.40168 134.705 6.86938 137.118 6.86938C138.812 6.86938 139.959 7.83586 139.959 9.66177C139.961 10.0478 139.918 10.4327 139.831 10.8087L135.787 10.7598ZM135.806 9.80858L137.641 9.71071C137.689 9.49365 137.716 9.27237 137.72 9.05008C137.72 8.33745 137.43 7.93373 136.913 7.93373C136.225 7.92762 135.885 8.69224 135.806 9.80858Z" fill="#213564"/>
<path d="M143.883 8.74117V13.491L144.996 13.7663V14.4452H140.669V13.7663L141.458 13.491V8.74117L140.669 8.3711V7.7227L143.785 6.86938L143.865 8.09278L145.223 6.86938C146.37 6.94891 146.807 7.65847 146.807 8.3711C146.832 8.72311 146.717 9.07077 146.489 9.33951C146.26 9.60824 145.935 9.77664 145.583 9.80858C145.397 9.51591 145.147 9.26834 144.853 9.08376C144.559 8.89917 144.228 8.78216 143.883 8.74117Z" fill="#213564"/>
<path d="M147.29 13.9744C147.37 13.3138 147.403 12.6195 147.419 11.9252H148.266C148.459 13.1211 149.107 13.5401 149.994 13.5401C150.575 13.5401 150.884 13.2801 150.884 12.8305C150.884 12.4574 150.737 12.2188 150.092 11.9558L149.073 11.5521C147.749 11.0535 147.312 10.292 147.312 9.20929C147.307 8.8819 147.379 8.55798 147.522 8.26365C147.666 7.96933 147.877 7.71284 148.137 7.51489C148.742 7.06599 149.483 6.8382 150.235 6.86955C151.043 6.86955 151.899 6.99801 152.45 7.35279C152.45 8.03177 152.514 8.72605 152.578 9.25822L151.624 9.43562C151.401 8.38656 150.835 7.96755 150.095 7.96755C149.514 7.96755 149.177 8.23975 149.177 8.6924C149.177 9.08083 149.37 9.32245 150 9.56713L152.101 10.3899C152.329 10.6215 152.506 10.8974 152.623 11.2004C152.74 11.5034 152.793 11.8271 152.78 12.1515C152.8 12.5043 152.735 12.8568 152.592 13.1796C152.448 13.5025 152.23 13.7865 151.954 14.008C151.315 14.4609 150.541 14.6831 149.758 14.6381C148.92 14.6381 147.92 14.476 147.29 13.9744Z" fill="#213564"/>
<path d="M57.6034 28.8507V28.1381L58.7167 27.7833V19.6906L57.6034 19.3358V18.6323H62.9833V19.3358L61.5764 19.6906V27.6426C62.472 27.6519 63.366 27.5658 64.2433 27.3857L64.7694 25.7463H65.6227V28.8507H57.6034Z" fill="#213564"/>
<path d="M69.9688 21.2717C72.1342 21.2717 73.5717 22.3881 73.5717 25.1499C73.5717 27.9117 72.1403 29.0311 69.9688 29.0311C67.7973 29.0311 66.3904 27.8964 66.3904 25.1499C66.3904 22.4034 67.8279 21.2717 69.9688 21.2717ZM69.9688 27.8628C70.7457 27.8628 71.0209 26.7495 71.0209 25.1988C71.0209 23.5197 70.7609 22.4462 69.9688 22.4462C69.1767 22.4462 68.9197 23.5136 68.9197 25.1988C68.9259 26.7495 69.2011 27.8628 69.9688 27.8628Z" fill="#213564"/>
<path d="M79.8783 29.0311C79.2176 29.0311 78.7803 28.7895 78.6182 28.19L76.5353 29.0311C75.0979 28.8201 74.3394 28.0126 74.3394 26.8902C74.3394 25.7677 75.0336 25.257 76.8412 24.7492L78.5325 24.3088V23.7614C78.5325 22.7429 78.0462 22.4676 77.1899 22.4676C77.0993 22.46 77.0082 22.46 76.9177 22.4676V23.8898C76.5702 24.0338 76.1955 24.1006 75.8197 24.0856C75.107 24.0856 74.5259 23.7124 74.5259 23.168C74.5259 22.6236 74.8654 22.2291 75.8502 21.9079L77.8535 21.2595H78.3062C80.1413 21.2595 80.857 22.2138 80.857 23.5717V26.9361C80.857 27.4224 81.068 27.615 81.4687 27.615H81.6797L81.7929 28.1166L80.2422 28.9883C80.1236 29.0201 80.001 29.0345 79.8783 29.0311ZM76.8198 26.6088C76.8198 27.2847 77.3183 27.6426 78.0432 27.6426C78.2124 27.6429 78.381 27.6213 78.5448 27.5783V25.1835C77.3917 25.5689 76.8106 25.8289 76.8106 26.621L76.8198 26.6088Z" fill="#213564"/>
<path d="M86.8578 28.1717L87.4542 27.8964V24.6972C87.4542 23.4218 87.0352 23.0487 86.1635 23.0487C85.974 23.0511 85.7849 23.0675 85.5977 23.0976V27.8964L86.1941 28.1717V28.8506H82.3496V28.1717L83.1754 27.8964V23.1466L82.3496 22.7765V22.1281L85.5671 21.2717V22.4951L87.5551 21.2717C89.1058 21.2717 89.8826 22.2107 89.8826 23.7185V27.8964L90.5922 28.1717V28.8506H86.8609L86.8578 28.1717Z" fill="#213564"/>
<path d="M67.73 42.4884V43.2164H62.4663V42.4884L63.806 42.0511L63.3197 40.4851H60.3652L59.8758 42.0633L61.1359 42.5007V43.2286H57.2302V42.4884L58.2151 42.0511L61.2215 33.1203L63.7417 32.8604L66.6962 42.0511L67.73 42.4884ZM60.7352 39.2893H62.9496L61.8516 35.6864L60.7352 39.2893Z" fill="#213564"/>
<path d="M71.8682 43.4211C69.556 43.4211 68.2959 42.1121 68.2959 39.3014C68.2959 36.879 69.556 35.6526 71.8988 35.6526C73.7553 35.6526 74.7095 36.4264 74.7095 37.5397C74.7095 38.2829 74.159 38.5581 73.3363 38.5581C73.0347 38.5628 72.7361 38.4968 72.4646 38.3655C72.4646 37.1421 72.2536 36.6864 71.7214 36.6864C70.8497 36.6864 70.6387 37.7843 70.6387 39.0444C70.6387 40.8795 71.4308 41.6441 72.6756 41.6441C73.297 41.6336 73.9066 41.4731 74.4526 41.1762L74.8074 41.8858L72.4646 43.3569C72.2691 43.4023 72.0689 43.4238 71.8682 43.4211Z" fill="#213564"/>
<path d="M81.0252 43.4213C80.3646 43.4213 79.9272 43.1797 79.7651 42.5802L77.6823 43.4213C76.2448 43.2102 75.4863 42.4028 75.4863 41.2803C75.4863 40.1579 76.1806 39.6471 77.9882 39.1394L79.6856 38.6684V38.1209C79.6856 37.1025 79.1993 36.8272 78.343 36.8272C78.2518 36.8242 78.1606 36.8303 78.0707 36.8456V38.2647C77.7232 38.4087 77.3486 38.4755 76.9727 38.4604C76.2601 38.4604 75.679 38.0873 75.679 37.5429C75.679 36.9985 76.0185 36.6039 77.0033 36.2828L79.0066 35.6375H79.4501C81.2852 35.6375 82.0009 36.5886 82.0009 37.9466V41.3109C82.0009 41.7972 82.2119 41.9899 82.6126 41.9899H82.8236L82.9368 42.4915L81.3861 43.3632C81.2693 43.4001 81.1477 43.4196 81.0252 43.4213ZM77.9668 40.999C77.9668 41.6779 78.4653 42.0327 79.1901 42.0327C79.3594 42.033 79.528 42.0114 79.6917 41.9685V39.5615C78.5326 39.9468 77.9576 40.2068 77.9576 40.999H77.9668Z" fill="#213564"/>
<path d="M88.3196 42.2406L86.4845 43.4212C84.6769 43.2591 83.7074 41.9195 83.7074 39.7051C83.7074 37.4908 84.7901 35.6985 87.6161 35.6985C87.8501 35.6968 88.0834 35.7245 88.3104 35.7811V33.9246L87.4724 33.5545V32.8236L90.7358 32.1782V41.999L91.5922 42.2743V42.9379L88.3196 43.4212V42.2406ZM87.5458 36.9097C86.8179 36.9097 86.2857 37.4755 86.2857 39.3565C86.2857 41.1671 87.0289 41.6687 87.9495 41.6687C88.0734 41.6644 88.1969 41.6531 88.3196 41.635V37.4602C88.2732 37.2918 88.1698 37.1448 88.0269 37.0444C87.8841 36.944 87.7107 36.8963 87.5366 36.9097H87.5458Z" fill="#213564"/>
<path d="M94.3693 39.543C94.4336 41.0141 94.9199 41.6289 96.4216 41.6289C97.0429 41.6183 97.6526 41.4578 98.1985 41.1609L98.5533 41.8705L96.2105 43.3569C96.0101 43.4039 95.8046 43.4255 95.5988 43.4211C93.3233 43.4211 92.0632 42.1274 92.0632 39.4145C92.0632 37.1849 93.2866 35.6526 95.6967 35.6526C97.3942 35.6526 98.5411 36.6191 98.5411 38.445C98.5439 38.8312 98.4997 39.2163 98.4096 39.5919L94.3693 39.543ZM94.3846 38.5918L96.2197 38.4939C96.2701 38.2772 96.2978 38.0558 96.3023 37.8333C96.3023 37.1207 96.0117 36.7169 95.4918 36.7169C94.8067 36.7169 94.4672 37.4754 94.3846 38.5918Z" fill="#213564"/>
<path d="M107.989 42.5495L108.585 42.2742V39.075C108.585 37.7996 108.166 37.4296 107.291 37.4296C107.086 37.4241 106.88 37.4457 106.68 37.4938C106.713 37.7073 106.729 37.9231 106.729 38.1391V42.2742L107.31 42.5495V43.2284H103.707V42.5495L104.303 42.2742V39.075C104.303 37.7996 103.9 37.4296 103.028 37.4296C102.833 37.4308 102.639 37.4461 102.447 37.4754V42.2742L103.059 42.5495V43.2284H99.2477V42.5495L100.025 42.2742V37.5244L99.2477 37.1543V36.5059L102.413 35.6526V36.876L104.401 35.6526C105.469 35.6526 106.178 36.1358 106.518 36.9096L108.683 35.6526C110.234 35.6526 111.008 36.5885 111.008 38.0994V42.2742L111.72 42.5495V43.2284H107.989V42.5495Z" fill="#213564"/>
<path d="M117.115 39.8824L118.002 36.9096L116.938 36.4906V35.8452H120.247V36.4906L119.516 36.9096L117.788 41.5952C116.996 43.7361 115.785 45.666 114.314 46.6019C113.635 46.6019 112.907 46.1982 112.907 45.3785V45.2409C114.265 44.883 115.332 44.4304 115.965 43.2376H115.048L112.803 36.9187L112.011 36.4997V35.8544H116.357V36.4997L115.259 36.9187L116.228 39.8916L116.663 41.4912L117.115 39.8824Z" fill="#213564"/>
</svg>
