<svg width="80" height="80" viewBox="0 0 80 80" fill="none" xmlns="http://www.w3.org/2000/svg">
<path d="M59.191 58.9721L18.8554 69.357C17.4871 69.7082 16.0354 69.5025 14.8186 68.785C13.6018 68.0674 12.7192 66.8965 12.3644 65.5292L0.168338 18.1578C-0.183939 16.7888 0.0214855 15.3359 0.739503 14.1183C1.45752 12.9006 2.62944 12.0176 3.99792 11.6633L41.5256 2L51.1246 6.3047L63.017 52.4847C63.3677 53.8522 63.1619 55.3031 62.4448 56.5191C61.7276 57.7352 60.5575 58.6173 59.191 58.9721Z" fill="#A0A2A3"/>
<path d="M4.38195 13.1548C3.40704 13.4051 2.57139 14.0322 2.05861 14.8983C1.54584 15.7644 1.3979 16.7987 1.6473 17.7738L13.8469 65.147C14.0991 66.1219 14.7281 66.9568 15.5955 67.4682C16.463 67.9797 17.498 68.1258 18.4732 67.8745L58.8052 57.4878C59.7792 57.236 60.6134 56.608 61.1248 55.7416C61.6362 54.8753 61.7828 53.8414 61.5327 52.867L49.8296 7.40327L41.3881 3.62549L4.38195 13.1548Z" fill="white"/>
<path d="M51.0281 6.54932L44.7854 8.15689C44.3297 8.2741 43.8461 8.20562 43.4409 7.96649C43.0356 7.72736 42.7419 7.33713 42.6241 6.88155L41.4381 2.27141C41.4343 2.25734 41.4334 2.24266 41.4353 2.22821C41.4372 2.21376 41.4419 2.19983 41.4492 2.18722C41.4565 2.17461 41.4663 2.16357 41.4778 2.15472C41.4894 2.14587 41.5026 2.13939 41.5167 2.13566C41.5405 2.12763 41.5662 2.12763 41.5899 2.13566L51.046 6.34034C51.0728 6.35242 51.0936 6.37464 51.104 6.40211C51.1144 6.42957 51.1134 6.46004 51.1014 6.4868C51.0949 6.50222 51.0849 6.51589 51.0722 6.52675C51.0594 6.53761 51.0444 6.54534 51.0281 6.54932Z" fill="#213564"/>
<path d="M47.7433 47.0047L29.3795 51.7345C29.1624 51.7646 28.9418 51.7139 28.7597 51.5918C28.5776 51.4698 28.4468 51.2851 28.392 51.0729C28.3373 50.8606 28.3626 50.6356 28.463 50.4408C28.5634 50.2459 28.732 50.0948 28.9366 50.0162L47.3021 45.2864C47.519 45.257 47.7391 45.3083 47.9207 45.4305C48.1022 45.5527 48.2326 45.7373 48.2871 45.9493C48.3415 46.1613 48.3162 46.3859 48.2159 46.5804C48.1157 46.775 47.9475 46.926 47.7433 47.0047Z" fill="#213564"/>
<path d="M52.0338 48.9947L30.1262 54.6336C29.9146 54.6532 29.7029 54.5966 29.5292 54.474C29.3555 54.3515 29.2312 54.171 29.1787 53.965C29.1262 53.759 29.1488 53.541 29.2426 53.3503C29.3364 53.1595 29.4952 53.0085 29.6904 52.9243L51.5997 47.2817C51.7173 47.2364 51.8432 47.2164 51.9691 47.2232C52.095 47.23 52.218 47.2634 52.33 47.3211C52.4421 47.3788 52.5407 47.4596 52.6193 47.5582C52.6978 47.6567 52.7547 47.7708 52.786 47.8929C52.8174 48.015 52.8225 48.1424 52.8011 48.2666C52.7797 48.3908 52.7323 48.5091 52.6619 48.6137C52.5915 48.7183 52.4998 48.8067 52.3928 48.8733C52.2857 48.9399 52.1658 48.9831 52.0409 49L52.0338 48.9947Z" fill="#213564"/>
<path d="M25.1178 54.3665C25.239 52.6343 23.933 51.1317 22.2008 51.0104C20.4685 50.8892 18.9659 52.1952 18.8447 53.9274C18.7234 55.6597 20.0294 57.1623 21.7617 57.2835C23.4939 57.4048 24.9965 56.0988 25.1178 54.3665Z" fill="#A0A2A3"/>
<path d="M45.7911 38.799L21.4007 45.0774C20.6971 45.2584 19.9504 45.1533 19.3241 44.7851C18.6977 44.4169 18.2428 43.8155 18.0588 43.1126L12.9467 23.2467C12.766 22.5418 12.8724 21.7941 13.2424 21.1675C13.6124 20.541 14.2159 20.0868 14.9204 19.9048L39.3108 13.6281C40.0144 13.4471 40.7611 13.5522 41.3874 13.9205C42.0138 14.2887 42.4687 14.8901 42.6527 15.5929L47.7648 35.4553C47.9455 36.1604 47.8392 36.9084 47.4692 37.5352C47.0992 38.162 46.4957 38.6165 45.7911 38.799Z" fill="white"/>
<path d="M45.7911 38.799L21.4007 45.0774C20.6971 45.2584 19.9504 45.1533 19.3241 44.7851C18.6977 44.4169 18.2428 43.8155 18.0588 43.1126L12.9467 23.2467C12.766 22.5418 12.8724 21.7941 13.2424 21.1675C13.6124 20.541 14.2159 20.0868 14.9204 19.9048L39.3108 13.6281C40.0144 13.4471 40.7611 13.5522 41.3874 13.9205C42.0138 14.2887 42.4687 14.8901 42.6527 15.5929L47.7648 35.4553C47.9455 36.1604 47.8392 36.9084 47.4692 37.5352C47.0992 38.162 46.4957 38.6165 45.7911 38.799ZM15.0026 20.2227C14.3814 20.3826 13.849 20.7822 13.5219 21.334C13.1948 21.8857 13.0997 22.5446 13.2575 23.1663L18.3678 43.0216C18.5284 43.6432 18.9291 44.1758 19.482 44.5023C20.0349 44.8288 20.6948 44.9226 21.3168 44.7631L45.7071 38.4846C46.3287 38.3244 46.8612 37.924 47.1877 37.3714C47.5143 36.8188 47.6081 36.1592 47.4486 35.5374L42.3401 15.6804C42.1795 15.0588 41.7788 14.5262 41.2259 14.1997C40.673 13.8732 40.0131 13.7794 39.3912 13.9389L15.0026 20.2227Z" fill="#213564"/>
<path d="M38.0747 20.3031L25.7608 23.4717C25.6527 23.5026 25.537 23.4909 25.4374 23.4391C25.3377 23.3873 25.2617 23.2992 25.2249 23.1931C25.2077 23.1397 25.2012 23.0835 25.2059 23.0276C25.2105 22.9718 25.2261 22.9174 25.2518 22.8676C25.2776 22.8178 25.3129 22.7735 25.3558 22.7374C25.3987 22.7013 25.4483 22.6741 25.5018 22.6572H25.525L38.0551 19.4314C38.5605 19.6868 38.4284 20.212 38.0693 20.3048L38.0747 20.3031Z" fill="#213564"/>
<path d="M38.6302 22.4626L26.3198 25.6312C26.2118 25.6612 26.0965 25.6491 25.9971 25.5974C25.8976 25.5457 25.8215 25.4582 25.784 25.3526C25.7668 25.2992 25.7603 25.243 25.7649 25.1871C25.7696 25.1313 25.7852 25.0769 25.8109 25.0271C25.8367 24.9773 25.872 24.933 25.9149 24.8969C25.9578 24.8608 26.0074 24.8336 26.0608 24.8167H26.0841L38.6213 21.5891C39.1268 21.8445 38.9946 22.3697 38.6356 22.4626H38.6302Z" fill="#213564"/>
<path d="M23.9746 27.5442L20.2236 28.5124C20.1007 28.5433 19.9705 28.5245 19.8615 28.4599C19.7524 28.3953 19.6733 28.2903 19.6413 28.1676L18.4999 23.7343C18.4685 23.6119 18.4869 23.4819 18.5512 23.3731C18.6155 23.2642 18.7204 23.1853 18.8429 23.1538L22.5939 22.1857C22.7168 22.1547 22.8469 22.1736 22.956 22.2382C23.065 22.3027 23.1442 22.4078 23.1762 22.5304L24.3175 26.9637C24.349 27.0862 24.3305 27.2161 24.2662 27.325C24.2019 27.4338 24.097 27.5127 23.9746 27.5442Z" fill="#B2173B"/>
<path d="M39.7323 26.8923L20.9381 31.7275C20.8303 31.758 20.7149 31.7464 20.6154 31.695C20.5159 31.6436 20.4397 31.5562 20.4022 31.4507C20.385 31.3973 20.3785 31.3411 20.3832 31.2852C20.3878 31.2293 20.4034 31.1749 20.4291 31.1251C20.4549 31.0753 20.4902 31.0311 20.5331 30.995C20.576 30.9589 20.6256 30.9317 20.6791 30.9148H20.7023L39.7091 26.0225C40.2146 26.2779 40.0824 26.803 39.7234 26.8959L39.7323 26.8923Z" fill="#213564"/>
<path d="M40.2878 29.0518L21.5007 33.887C21.3929 33.9174 21.2776 33.9058 21.1781 33.8544C21.0786 33.803 21.0023 33.7156 20.9648 33.6101C20.9477 33.5566 20.9413 33.5003 20.946 33.4443C20.9508 33.3884 20.9666 33.3339 20.9925 33.2841C21.0184 33.2343 21.0539 33.1901 21.097 33.154C21.1401 33.118 21.1899 33.0909 21.2435 33.0742H21.2649L40.2717 28.1819C40.779 28.4391 40.645 28.9624 40.286 29.0553L40.2878 29.0518Z" fill="#213564"/>
<path d="M40.8433 31.2095L22.058 36.0465C21.95 36.0774 21.8343 36.0657 21.7346 36.0139C21.635 35.962 21.559 35.874 21.5222 35.7679C21.5047 35.7145 21.4981 35.6583 21.5026 35.6023C21.5071 35.5464 21.5227 35.4919 21.5485 35.442C21.5742 35.3921 21.6096 35.3479 21.6527 35.3119C21.6957 35.2758 21.7454 35.2487 21.799 35.232H21.8205L40.8273 30.3379C41.3345 30.5951 41.2006 31.1202 40.8415 31.2113L40.8433 31.2095Z" fill="#213564"/>
<path d="M41.3988 33.369L22.6135 38.206C22.5055 38.2368 22.3898 38.2251 22.2901 38.1733C22.1905 38.1215 22.1144 38.0334 22.0777 37.9273C22.0602 37.874 22.0536 37.8177 22.0581 37.7617C22.0626 37.7058 22.0782 37.6513 22.1039 37.6014C22.1297 37.5516 22.1651 37.5073 22.2081 37.4713C22.2512 37.4352 22.3009 37.4081 22.3545 37.3915H22.376L41.3845 32.4973C41.8918 32.7527 41.7578 33.2761 41.3988 33.369Z" fill="#213564"/>
<path d="M41.9561 35.5286L23.1691 40.3638C23.0613 40.3943 22.9459 40.3826 22.8464 40.3312C22.7469 40.2798 22.6707 40.1925 22.6332 40.0869C22.6158 40.0336 22.6091 39.9773 22.6136 39.9213C22.6181 39.8654 22.6337 39.8109 22.6595 39.761C22.6852 39.7112 22.7207 39.6669 22.7637 39.6309C22.8067 39.5948 22.8565 39.5677 22.9101 39.551H22.9315L41.9401 34.6587C42.4473 34.9105 42.3134 35.4357 41.9561 35.5286Z" fill="#213564"/>
<path d="M22.1152 55.3926C22.047 55.4103 21.9748 55.4053 21.9098 55.3783L21.056 55.0211C20.9821 54.9832 20.9253 54.9188 20.897 54.8408C20.8687 54.7628 20.8709 54.677 20.9032 54.6006C20.9356 54.5241 20.9956 54.4628 21.0713 54.4288C21.147 54.3948 21.2328 54.3907 21.3114 54.4173L21.8651 54.6531L22.5903 52.9473C22.6064 52.9071 22.6303 52.8706 22.6606 52.8398C22.691 52.809 22.7272 52.7846 22.7671 52.7679C22.807 52.7513 22.8499 52.7428 22.8931 52.7429C22.9364 52.7431 22.9792 52.7518 23.019 52.7687V52.7794V52.7687C23.059 52.7849 23.0954 52.809 23.126 52.8394C23.1567 52.8698 23.1811 52.9059 23.1977 52.9458C23.2143 52.9857 23.2228 53.0284 23.2228 53.0716C23.2228 53.1148 23.2142 53.1575 23.1976 53.1974L22.3438 55.2033C22.3243 55.2497 22.2944 55.2909 22.2562 55.3238C22.2181 55.3566 22.1729 55.3802 22.1241 55.3926H22.1152Z" fill="white"/>
<path d="M74.6629 77.0252H33.0109C31.5982 77.0238 30.2438 76.4619 29.2448 75.463C28.2459 74.4641 27.6841 73.1097 27.6827 71.697V22.7806C27.6841 21.3679 28.2459 20.0135 29.2448 19.0145C30.2438 18.0156 31.5982 17.4538 33.0109 17.4524H71.771L80 24.0113V71.7024C79.9971 73.1157 79.4335 74.4701 78.4328 75.4681C77.4321 76.4661 76.0762 77.0261 74.6629 77.0252Z" fill="#A0A2A3"/>
<path d="M33.0109 18.9866C32.0048 18.987 31.0401 19.3869 30.3288 20.0983C29.6174 20.8097 29.2175 21.7744 29.217 22.7804V71.6968C29.2175 72.7029 29.6174 73.6676 30.3288 74.379C31.0401 75.0904 32.0048 75.4902 33.0109 75.4907H74.6629C75.6683 75.4893 76.6321 75.089 77.3427 74.3777C78.0533 73.6664 78.4527 72.7023 78.4532 71.6968V24.7506L71.2245 18.9866H33.0109Z" fill="white"/>
<path d="M63.5225 65.2952H44.1585C44.0291 65.2952 43.9051 65.2438 43.8137 65.1524C43.7222 65.0609 43.6708 64.9369 43.6708 64.8075V53.4135C43.6706 53.3493 43.683 53.2857 43.7074 53.2263C43.7318 53.167 43.7677 53.113 43.813 53.0675C43.8583 53.0221 43.9122 52.986 43.9715 52.9614C44.0307 52.9367 44.0943 52.9241 44.1585 52.9241H63.5225C63.6518 52.9241 63.7758 52.9754 63.8673 53.0669C63.9587 53.1583 64.0101 53.2824 64.0101 53.4117V64.8058C64.0103 64.8699 63.9979 64.9336 63.9735 64.9929C63.9491 65.0523 63.9132 65.1063 63.8679 65.1517C63.8226 65.1972 63.7688 65.2333 63.7095 65.2579C63.6502 65.2825 63.5867 65.2952 63.5225 65.2952Z" fill="#131E29"/>
<path d="M57.2137 58.8042C57.0088 58.5852 56.7255 58.4564 56.4258 58.446C56.1261 58.4356 55.8345 58.5445 55.615 58.7488L55.5882 58.7756L49.8724 64.4914C49.7209 64.6417 49.5161 64.7261 49.3027 64.7261C49.0892 64.7261 48.8844 64.6417 48.7329 64.4914L47.8844 63.6448C47.7797 63.5399 47.6554 63.4568 47.5186 63.4C47.3817 63.3433 47.235 63.3141 47.0869 63.3141C46.9387 63.3141 46.7921 63.3433 46.6552 63.4C46.5184 63.4568 46.394 63.5399 46.2894 63.6448L44.6479 65.2863H63.0455V65.0701L57.2137 58.8042Z" fill="#B2173B"/>
<path d="M68.3773 27.0961H39.3357C39.1738 27.0998 39.0162 27.0437 38.893 26.9386C38.7698 26.8335 38.6896 26.6867 38.6677 26.5263C38.6588 26.4432 38.6664 26.3592 38.6901 26.2791C38.7137 26.1989 38.753 26.1243 38.8056 26.0594C38.8583 25.9945 38.9232 25.9406 38.9967 25.9009C39.0702 25.8612 39.1508 25.8364 39.2339 25.8279H39.2982H68.3326C68.4973 25.8234 68.6578 25.88 68.7831 25.9869C68.9085 26.0938 68.9898 26.2433 69.0114 26.4066C69.0263 26.5745 68.9738 26.7415 68.8656 26.8708C68.7575 27.0001 68.6024 27.0811 68.4344 27.0961H68.3773Z" fill="#B2173B"/>
<path d="M35.2436 45.4775C35.0848 45.469 34.9352 45.3998 34.8258 45.2844C34.7163 45.1689 34.6553 45.0159 34.6553 44.8568C34.6553 44.6977 34.7163 44.5447 34.8258 44.4292C34.9352 44.3137 35.0848 44.2446 35.2436 44.2361H72.432C72.5908 44.2446 72.7404 44.3137 72.8498 44.4292C72.9592 44.5447 73.0202 44.6977 73.0202 44.8568C73.0202 45.0159 72.9592 45.1689 72.8498 45.2844C72.7404 45.3998 72.5908 45.469 72.432 45.4775H35.2436Z" fill="#A0A2A3"/>
<path d="M35.2436 40.9566C35.0778 40.9566 34.9188 40.8908 34.8016 40.7735C34.6843 40.6563 34.6185 40.4973 34.6185 40.3315C34.6185 40.1657 34.6843 40.0066 34.8016 39.8894C34.9188 39.7722 35.0778 39.7063 35.2436 39.7063H72.432C72.5978 39.7063 72.7568 39.7722 72.874 39.8894C72.9913 40.0066 73.0571 40.1657 73.0571 40.3315C73.0571 40.4973 72.9913 40.6563 72.874 40.7735C72.7568 40.8908 72.5978 40.9566 72.432 40.9566H35.2436Z" fill="#A0A2A3"/>
<path d="M35.2436 36.4198C35.0778 36.4198 34.9188 36.3539 34.8016 36.2367C34.6843 36.1194 34.6185 35.9604 34.6185 35.7946C34.6185 35.6288 34.6843 35.4698 34.8016 35.3525C34.9188 35.2353 35.0778 35.1694 35.2436 35.1694H72.432C72.5978 35.1694 72.7568 35.2353 72.874 35.3525C72.9913 35.4698 73.0571 35.6288 73.0571 35.7946C73.0571 35.9604 72.9913 36.1194 72.874 36.2367C72.7568 36.3539 72.5978 36.4198 72.432 36.4198H35.2436Z" fill="#A0A2A3"/>
<path d="M35.2436 31.89C35.0778 31.89 34.9188 31.8241 34.8016 31.7069C34.6843 31.5896 34.6185 31.4306 34.6185 31.2648C34.6185 31.099 34.6843 30.94 34.8016 30.8228C34.9188 30.7055 35.0778 30.6396 35.2436 30.6396H72.4302C72.596 30.6396 72.755 30.7055 72.8722 30.8228C72.9895 30.94 73.0553 31.099 73.0553 31.2648C73.0553 31.4306 72.9895 31.5896 72.8722 31.7069C72.755 31.8241 72.596 31.89 72.4302 31.89H35.2436Z" fill="#A0A2A3"/>
<path d="M35.2436 49.5714C35.0778 49.5714 34.9188 49.5055 34.8016 49.3883C34.6843 49.271 34.6185 49.112 34.6185 48.9462C34.6185 48.7804 34.6843 48.6214 34.8016 48.5041C34.9188 48.3869 35.0778 48.321 35.2436 48.321H72.4302C72.596 48.321 72.755 48.3869 72.8722 48.5041C72.9895 48.6214 73.0553 48.7804 73.0553 48.9462C73.0553 49.112 72.9895 49.271 72.8722 49.3883C72.755 49.5055 72.596 49.5714 72.4302 49.5714H35.2436Z" fill="#A0A2A3"/>
<path d="M35.2436 69.8929C35.0778 69.8929 34.9188 69.827 34.8016 69.7098C34.6843 69.5926 34.6185 69.4335 34.6185 69.2677C34.6185 69.1019 34.6843 68.9429 34.8016 68.8257C34.9188 68.7084 35.0778 68.6426 35.2436 68.6426H72.4302C72.596 68.6426 72.755 68.7084 72.8722 68.8257C72.9895 68.9429 73.0553 69.1019 73.0553 69.2677C73.0553 69.4335 72.9895 69.5926 72.8722 69.7098C72.755 69.827 72.596 69.8929 72.4302 69.8929H35.2436Z" fill="#A0A2A3"/>
<path d="M79.8303 24.2221H73.384C72.9136 24.2221 72.4624 24.0352 72.1298 23.7026C71.7972 23.3699 71.6103 22.9188 71.6103 22.4484V17.6864C71.6103 17.6719 71.6132 17.6575 71.6187 17.644C71.6243 17.6306 71.6324 17.6184 71.6427 17.6081C71.653 17.5978 71.6652 17.5897 71.6787 17.5841C71.6921 17.5785 71.7065 17.5757 71.721 17.5757C71.7459 17.5758 71.7699 17.5846 71.7889 17.6007L79.9 24.0309C79.9176 24.0454 79.9304 24.0649 79.9365 24.0869C79.9427 24.1089 79.9419 24.1322 79.9342 24.1537C79.9266 24.1752 79.9125 24.1938 79.8939 24.207C79.8753 24.2202 79.8531 24.2273 79.8303 24.2274V24.2221Z" fill="#213564"/>
</svg>
