<svg width="50" height="45" viewBox="0 0 50 45" fill="none" xmlns="http://www.w3.org/2000/svg">
<path d="M38.0622 0C38.5925 0 39.1011 0.210699 39.4761 0.585694C39.8511 0.960689 40.0618 1.46926 40.0618 1.99959V38.9919C40.088 39.9253 40.3128 40.8423 40.7214 41.6819C41.13 42.5215 41.713 43.2644 42.4313 43.8609C42.5139 43.9237 42.5744 44.011 42.6042 44.1104C42.634 44.2097 42.6315 44.316 42.597 44.4138C42.5626 44.5116 42.4979 44.5961 42.4124 44.6548C42.3269 44.7136 42.225 44.7436 42.1213 44.7407H4.74902C3.4895 44.7407 2.28156 44.2404 1.39095 43.3498C0.500332 42.4592 0 41.2512 0 39.9917V1.99959C0 1.46926 0.210697 0.960689 0.585693 0.585694C0.96069 0.210699 1.46926 0 1.99958 0H38.0622ZM49.9997 23.7551V38.2121C50.012 39.1069 49.681 39.9725 49.0748 40.6308C48.4686 41.2891 47.6331 41.6901 46.7403 41.7514C46.2793 41.7816 45.8171 41.7165 45.3825 41.56C44.9478 41.4035 44.55 41.159 44.2141 40.8419C43.8782 40.5247 43.6113 40.1417 43.4301 39.7168C43.2489 39.2918 43.1574 38.834 43.1611 38.3721V23.7651C43.1611 23.4999 43.2664 23.2456 43.4539 23.0581C43.6414 22.8706 43.8957 22.7653 44.1609 22.7653H48.94C49.0754 22.7572 49.211 22.7766 49.3387 22.8225C49.4663 22.8685 49.5832 22.94 49.6824 23.0326C49.7815 23.1252 49.8608 23.237 49.9153 23.3613C49.9699 23.4855 49.9986 23.6194 49.9997 23.7551ZM31.1636 21.3756H9.02816C8.63042 21.3756 8.24896 21.5336 7.96771 21.8148C7.68647 22.0961 7.52847 22.4775 7.52847 22.8753C7.52715 23.0731 7.565 23.2692 7.63978 23.4523C7.71455 23.6354 7.82478 23.8019 7.96417 23.9422C8.10356 24.0825 8.26938 24.1939 8.45198 24.2699C8.63459 24.3459 8.83038 24.385 9.02816 24.385H31.1636C31.564 24.385 31.948 24.2259 32.2311 23.9428C32.5142 23.6597 32.6733 23.2757 32.6733 22.8753C32.6707 22.4766 32.5104 22.0952 32.2276 21.8142C31.9448 21.5333 31.5623 21.3756 31.1636 21.3756ZM31.1636 27.8342H9.02816C8.83038 27.8342 8.63459 27.8733 8.45198 27.9493C8.26938 28.0253 8.10356 28.1367 7.96417 28.277C7.82478 28.4173 7.71455 28.5839 7.63978 28.767C7.565 28.9501 7.52715 29.1461 7.52847 29.3439C7.52847 29.7416 7.68647 30.1231 7.96771 30.4044C8.24896 30.6856 8.63042 30.8436 9.02816 30.8436H31.1636C31.5623 30.8436 31.9448 30.6859 32.2276 30.405C32.5104 30.124 32.6707 29.7426 32.6733 29.3439C32.6629 28.9505 32.4992 28.5767 32.2172 28.3021C31.9352 28.0276 31.5572 27.8741 31.1636 27.8742V27.8342ZM31.1636 8.4482H9.02816C8.6295 8.45084 8.24806 8.61108 7.9671 8.89391C7.68614 9.17675 7.52846 9.55923 7.52847 9.9579C7.52846 10.3566 7.68614 10.7391 7.9671 11.0219C8.24806 11.3047 8.6295 11.465 9.02816 11.4676H31.1636C31.5632 11.465 31.9456 11.3051 32.2282 11.0225C32.5108 10.7399 32.6707 10.3575 32.6733 9.9579C32.6604 9.56531 32.496 9.19306 32.2145 8.91905C31.9331 8.64505 31.5564 8.49061 31.1636 8.48823V8.4482ZM31.1636 14.917H9.02816C8.63042 14.917 8.24896 15.075 7.96771 15.3562C7.68647 15.6374 7.52847 16.0189 7.52847 16.4166C7.52715 16.6144 7.565 16.8104 7.63978 16.9936C7.71455 17.1767 7.82478 17.3432 7.96417 17.4836C8.10356 17.6239 8.26938 17.7351 8.45198 17.8111C8.63459 17.8871 8.83038 17.9263 9.02816 17.9263H31.1636C31.5632 17.9237 31.9456 17.7638 32.2282 17.4812C32.5108 17.1987 32.6707 16.8162 32.6733 16.4166C32.6603 16.025 32.4955 15.6536 32.2138 15.3812C31.9321 15.1088 31.5555 14.9567 31.1636 14.9569V14.917Z" fill="#E8E8E8"/>
</svg>
