<svg width="20" height="20" viewBox="0 0 20 20" fill="none" xmlns="http://www.w3.org/2000/svg">
<path d="M10 20C15.5228 20 20 15.5228 20 10C20 4.47715 15.5228 0 10 0C4.47715 0 0 4.47715 0 10C0 15.5228 4.47715 20 10 20Z" fill="white"/>
<path d="M10 16.5001C9.80165 16.4984 9.60525 16.4611 9.42004 16.3901C9.05933 16.2293 8.77083 15.9408 8.61005 15.5801C8.53817 15.3951 8.50083 15.1985 8.5 15.0001C8.50251 14.6028 8.66045 14.2224 8.94 13.9401C9.22728 13.6708 9.60626 13.521 10 13.521C10.3937 13.521 10.7727 13.6708 11.06 13.9401C11.3395 14.2224 11.4975 14.6028 11.5 15.0001C11.4997 15.3978 11.3414 15.7791 11.06 16.0601C10.9222 16.2012 10.7573 16.313 10.5751 16.3886C10.3929 16.4642 10.1972 16.5022 10 16.5001Z" fill="#B2173B"/>
<path d="M10 11.5C9.60218 11.5 9.2207 11.342 8.93939 11.0607C8.65809 10.7794 8.5 10.3978 8.5 10V5C8.5 4.60218 8.65809 4.22067 8.93939 3.93936C9.2207 3.65806 9.60218 3.5 10 3.5C10.3978 3.5 10.7794 3.65806 11.0607 3.93936C11.342 4.22067 11.5 4.60218 11.5 5V10C11.5 10.3978 11.342 10.7794 11.0607 11.0607C10.7794 11.342 10.3978 11.5 10 11.5Z" fill="#B2173B"/>
</svg>
