<svg width="49" height="50" viewBox="0 0 49 50" fill="none" xmlns="http://www.w3.org/2000/svg">
<path d="M1.41132 0C1.02531 0.0381694 0.667875 0.220471 0.410322 0.51052C0.159363 0.785099 0.0140247 1.1398 0 1.51152V48.4284C8.37005e-05 48.8451 0.165675 49.2448 0.460421 49.5395C0.755083 49.8342 1.15474 49.9999 1.57152 50H35.2051C35.6184 49.9973 36.0141 49.8318 36.3063 49.5395C36.4518 49.3937 36.5665 49.2204 36.6439 49.0295C36.7213 48.8387 36.7596 48.6343 36.7567 48.4284V39.1591L30.3803 45.5455C29.9362 45.9914 29.4069 46.3436 28.8239 46.5809C28.241 46.8182 27.6162 46.9358 26.9869 46.9269L22.5125 46.8468C21.2964 46.8216 20.1367 46.3292 19.2738 45.4719C18.4109 44.6146 17.911 43.4582 17.8778 42.2423L17.8077 37.7578C17.7979 37.1269 17.9152 36.5003 18.1525 35.9156C18.3898 35.3309 18.7424 34.8 19.1891 34.3544L36.7467 16.8068V1.57164C36.7397 1.1592 36.575 0.765143 36.2862 0.470563C35.994 0.178257 35.5983 0.0127443 35.185 0.0100198H1.41132V0ZM10.8508 8.10819H25.8658C26.075 8.10313 26.283 8.14039 26.4774 8.2178C26.6718 8.29521 26.8485 8.41112 26.9969 8.5586C27.146 8.70264 27.2646 8.87527 27.3454 9.06618C27.4263 9.2571 27.4677 9.46237 27.4674 9.66969C27.4673 9.87844 27.4257 10.0851 27.3449 10.2776C27.2642 10.4701 27.1459 10.6445 26.9969 10.7908C26.6921 11.0813 26.2868 11.2426 25.8658 11.2412H10.8508C10.4298 11.2426 10.0245 11.0813 9.71967 10.7908C9.57072 10.6445 9.45244 10.4701 9.37166 10.2776C9.29089 10.0851 9.24926 9.87844 9.24923 9.66969C9.2489 9.46237 9.29034 9.2571 9.37117 9.06618C9.45201 8.87527 9.57056 8.70264 9.71967 8.5586C9.86809 8.41112 10.0448 8.29521 10.2392 8.2178C10.4336 8.14039 10.6416 8.10313 10.8508 8.10819ZM42.2822 16.3264H42.112C41.7629 16.3678 41.4381 16.5266 41.191 16.7768L37.187 20.7808L43.9538 27.5676L47.9578 23.5636C48.2501 23.2714 48.4156 22.8758 48.4183 22.4625C48.4156 22.0492 48.2501 21.6536 47.9578 21.3614L43.4033 16.7868C43.1019 16.4899 42.6953 16.3244 42.2722 16.3264H42.2822ZM10.8508 15.0851H25.8658C26.0741 15.0804 26.2812 15.117 26.4753 15.1925C26.6694 15.2681 26.8467 15.3812 26.9969 15.5255C27.1454 15.6721 27.2635 15.8467 27.3442 16.0391C27.4249 16.2315 27.4668 16.438 27.4674 16.6466C27.4668 16.8553 27.4249 17.0619 27.3442 17.2543C27.2635 17.4467 27.1454 17.6211 26.9969 17.7677C26.8467 17.912 26.6694 18.0253 26.4753 18.1008C26.2812 18.1764 26.0741 18.2129 25.8658 18.2082H10.8508C10.6425 18.2129 10.4354 18.1764 10.2413 18.1008C10.0472 18.0253 9.86991 17.912 9.71967 17.7677C9.57117 17.6211 9.45314 17.4467 9.3724 17.2543C9.29165 17.0619 9.24981 16.8553 9.24923 16.6466C9.24981 16.438 9.29165 16.2315 9.3724 16.0391C9.45314 15.8467 9.57117 15.6721 9.71967 15.5255C9.86991 15.3812 10.0472 15.2681 10.2413 15.1925C10.4354 15.117 10.6425 15.0804 10.8508 15.0851ZM35.0049 22.983L21.3813 36.6066C21.2313 36.7557 21.1131 36.9337 21.0339 37.1298C20.9548 37.326 20.9163 37.5363 20.9208 37.7478L20.9909 42.2322C20.9967 42.639 21.1621 43.0272 21.4514 43.3133C21.7392 43.5999 22.1264 43.7647 22.5325 43.7737L27.027 43.8539C27.2366 43.8559 27.4446 43.8162 27.6388 43.7372C27.833 43.6581 28.0095 43.5413 28.1581 43.3934L41.7817 29.7597L35.0049 22.983Z" fill="#E8E8E8"/>
</svg>
