<svg width="60" height="32" viewBox="0 0 60 32" fill="none" xmlns="http://www.w3.org/2000/svg">
<path d="M28.5349 26.8788C28.2294 27.0642 27.9636 27.3082 27.7529 27.5968C27.5422 27.8853 27.3907 28.2127 27.3071 28.5601C27.2235 28.9075 27.2095 29.2681 27.2658 29.6209C27.3222 29.9737 27.4479 30.3118 27.6355 30.6159C28.014 31.2337 28.6219 31.6764 29.3261 31.8468C30.0303 32.0173 30.7735 31.9016 31.3926 31.5252L32.2319 30.7359L40.2256 23.1318C40.3086 23.0507 40.3608 22.9433 40.3733 22.8279C40.3858 22.7126 40.3577 22.5964 40.2939 22.4995C40.2301 22.4025 40.1345 22.3309 40.0236 22.2967C39.9127 22.2626 39.7933 22.2682 39.686 22.3125L29.3242 26.5691L28.5349 26.8788Z" fill="#E8E8E8"/>
<path d="M45.8511 5.84546L40.6852 14.8384C40.5606 15.0514 40.5192 15.3029 40.569 15.5446C40.6189 15.7863 40.7563 16.0009 40.955 16.1473C42.9751 17.6863 44.6477 19.6344 45.8633 21.8642C47.079 24.094 47.8103 26.5553 48.0095 29.0871C48.0095 29.3521 48.1147 29.6062 48.3021 29.7936C48.4895 29.981 48.7437 30.0864 49.0087 30.0864H59.0008C59.2658 30.0864 59.5199 29.981 59.7073 29.7936C59.8947 29.6062 60 29.3521 60 29.0871C59.8473 24.4653 58.6244 19.9418 56.4276 15.8726C54.2309 11.8033 51.1201 8.29913 47.3399 5.63555C47.2321 5.54257 47.1057 5.47382 46.9691 5.43368C46.8326 5.39354 46.6889 5.38295 46.548 5.40282C46.407 5.42269 46.2719 5.4725 46.1517 5.54882C46.0315 5.62515 45.929 5.72631 45.8511 5.84546Z" fill="#E8E8E8"/>
<path d="M29.9237 1.51932e-05C25.4705 -0.00366559 21.073 0.989789 17.0539 2.90763C16.9312 2.96841 16.8222 3.05377 16.7338 3.15841C16.6455 3.26306 16.5796 3.38486 16.5403 3.51604C16.5009 3.64722 16.4888 3.78499 16.505 3.92099C16.5212 4.057 16.5652 4.18825 16.6342 4.30655L21.83 13.2995C21.954 13.512 22.1521 13.6714 22.3862 13.747C22.6204 13.8226 22.8742 13.8091 23.0991 13.7092C25.2651 12.8231 27.5834 12.3683 29.9237 12.3703C32.2684 12.3668 34.5908 12.8252 36.7583 13.7192C36.9843 13.8183 37.239 13.8302 37.4733 13.7527C37.7076 13.6752 37.905 13.5138 38.0273 13.2995L43.2232 4.30655C43.2922 4.18825 43.3362 4.057 43.3524 3.92099C43.3685 3.78499 43.3565 3.64722 43.3171 3.51604C43.2778 3.38486 43.2119 3.26306 43.1235 3.15841C43.0352 3.05377 42.9262 2.96841 42.8035 2.90763C38.7811 0.988977 34.3803 -0.00448091 29.9237 1.51932e-05Z" fill="#E8E8E8"/>
<path d="M0.956523 29.9962H10.9486C11.2136 29.9962 11.4678 29.891 11.6552 29.7036C11.8426 29.5162 11.9479 29.262 11.9479 28.997C12.1433 26.4643 12.8729 24.0017 14.0889 21.7714C15.3048 19.5411 16.9794 17.5936 19.0023 16.0573C19.2027 15.9123 19.3421 15.6983 19.3938 15.4565C19.4454 15.2148 19.4057 14.9625 19.2822 14.7484L14.1062 5.75545C14.0378 5.63452 13.945 5.52917 13.8337 5.44612C13.7223 5.36308 13.5949 5.30407 13.4595 5.27304C13.3241 5.24201 13.1837 5.23957 13.0473 5.26584C12.9109 5.29211 12.7816 5.34653 12.6674 5.42563C8.8916 8.09361 5.7841 11.5987 3.58787 15.6671C1.39164 19.7354 0.166162 24.2566 0.00732085 28.8771C-0.00934353 29.0139 0.00252384 29.1527 0.0420835 29.2847C0.0816431 29.4168 0.148089 29.5392 0.237242 29.6443C0.326395 29.7494 0.436306 29.8349 0.560107 29.8955C0.683909 29.956 0.818825 29.9903 0.956523 29.9962Z" fill="#E8E8E8"/>
</svg>
