<svg width="21" height="20" viewBox="0 0 21 20" fill="none" xmlns="http://www.w3.org/2000/svg">
<path d="M19.7156 18.3279L16.4979 15.1102C17.9355 13.3263 18.6636 11.0742 18.5423 8.78633C18.421 6.49845 17.459 4.33598 15.8408 2.71403C14.0987 0.976041 11.7383 0 9.27743 0C6.81658 0 4.45621 0.976041 2.71404 2.71403C0.976053 4.4562 0 6.81658 0 9.27742C0 11.7383 0.976053 14.0986 2.71404 15.8408C3.57589 16.7034 4.5997 17.3872 5.72666 17.8529C6.85361 18.3186 8.06148 18.557 9.28086 18.5544C11.4038 18.5567 13.4632 17.8296 15.1141 16.4949L18.3308 19.7127C18.5147 19.8966 18.7641 19.9999 19.0242 20C19.1531 20.0001 19.2808 19.9748 19.4 19.9255C19.5191 19.8762 19.6274 19.8038 19.7185 19.7127C19.9014 19.5284 20.0038 19.2792 20.0032 19.0197C20.0027 18.7601 19.8993 18.5113 19.7156 18.3279ZM4.10174 14.4541C2.73074 13.0801 1.96077 11.2184 1.96077 9.27742C1.96077 7.33644 2.73074 5.47472 4.10174 4.10075C4.78134 3.42022 5.58878 2.88073 6.4776 2.51332C7.36642 2.14591 8.3191 1.95782 9.28086 1.95987C10.2416 1.95852 11.1931 2.14686 12.0808 2.51408C12.9686 2.88129 13.7751 3.42016 14.4541 4.09977C15.8248 5.4737 16.5946 7.33521 16.5946 9.27596C16.5946 11.2167 15.8248 13.0782 14.4541 14.4521C13.0806 15.8233 11.2192 16.5936 9.27833 16.594C7.3375 16.5944 5.47579 15.8248 4.10174 14.4541Z" fill="#131E29"/>
</svg>
